<svg width="53" height="53" viewBox="0 0 53 53" fill="none" xmlns="http://www.w3.org/2000/svg">
<rect width="53" height="53" fill="#1052F9"/>
<path d="M26.4804 11C16.8603 11 9 18.7681 9 28.2754V43H44V28.2754C44 18.7681 36.1397 11 26.4804 11ZM32.4637 24.913C33.9497 24.913 35.162 26.1111 35.162 27.5797C35.162 29.0483 33.9497 30.2464 32.4637 30.2464C30.9777 30.2464 29.7654 29.0483 29.7654 27.5797C29.7654 26.1111 30.9777 24.913 32.4637 24.913ZM17.2905 28.2754C17.2905 23.2512 21.4358 19.1932 26.4804 19.1932C27.3408 19.1932 28.162 19.3478 28.9441 19.5797C25.8156 20.8937 23.6257 23.9855 23.6257 27.6184C23.6257 30.5942 25.1508 33.2222 27.4581 34.8068H17.2905V28.2754Z" fill="white"/>
</svg>
