<svg width="453" height="67" viewBox="0 0 453 67" fill="none" xmlns="http://www.w3.org/2000/svg">
<path d="M370.679 10.1914C370.126 10.3494 369.573 10.4284 369.02 10.4284C368.072 10.4284 367.361 10.2704 366.65 9.8754C366.018 9.55939 365.465 9.00638 365.07 8.37436C364.675 7.74234 364.517 6.95231 364.517 6.00428C364.517 5.29326 364.596 4.74025 364.833 4.18723C365.07 3.63421 365.307 3.1602 365.702 2.76518C366.097 2.37017 366.571 2.05416 367.045 1.89616C367.519 1.73815 368.151 1.58015 368.862 1.58015C369.415 1.58015 369.968 1.65915 370.442 1.81716C370.916 1.97516 371.311 2.21217 371.706 2.52818L372.497 1.26414C372.022 0.869126 371.469 0.553116 370.916 0.395111C370.284 0.158104 369.573 0.0791016 368.704 0.0791016C367.835 0.0791016 367.045 0.237106 366.334 0.474114C365.623 0.711121 364.991 1.18514 364.517 1.73815C363.964 2.29117 363.569 2.92319 363.332 3.63421C363.095 4.34523 362.937 5.13526 362.937 6.00428C362.937 7.18932 363.174 8.21635 363.648 9.08538C364.122 9.95441 364.833 10.6654 365.702 11.1394C366.571 11.6135 367.598 11.8505 368.783 11.8505C369.652 11.8505 370.363 11.7715 371.074 11.5345C371.785 11.2974 372.418 10.9814 372.971 10.5864L372.26 9.32239C371.706 9.7174 371.153 10.0334 370.679 10.1914Z" fill="white"/>
<path d="M379.607 7.03122H381.345L384.663 11.6924H386.48L382.925 6.79422C383.557 6.71522 384.031 6.55721 384.505 6.2412C384.979 6.00419 385.295 5.60918 385.532 5.21417C385.769 4.81916 385.927 4.26614 385.927 3.71312C385.927 3.0021 385.769 2.44908 385.453 1.97507C385.137 1.50105 384.742 1.10604 384.189 0.790032C383.636 0.553024 383.004 0.39502 382.214 0.39502H378.027V11.6924H379.528V7.03122H379.607ZM379.607 1.73806H382.135C382.925 1.73806 383.478 1.89607 383.873 2.29108C384.268 2.68609 384.426 3.1601 384.426 3.79212C384.426 4.42414 384.189 4.89816 383.794 5.21417C383.32 5.53018 382.767 5.68818 381.977 5.68818H379.607V1.73806Z" fill="white"/>
<path d="M399.515 11.6924H401.253L396.671 0.39502H395.091L390.667 11.6924H392.326L393.432 8.84828H398.488L399.515 11.6924ZM393.748 7.50524L395.802 2.21208L397.935 7.50524H393.748Z" fill="white"/>
<path d="M407.653 1.81706H412.946V0.39502H406.152V11.6924H407.653V6.71521H412.472V5.37217H407.653V1.81706Z" fill="white"/>
<path d="M425.586 0.39502H417.607V1.81706H420.846V11.6924H422.347V1.81706H425.586V0.39502Z" fill="white"/>
<path d="M432.38 6.39921H437.2V5.13517H432.38V1.73806H437.911V0.39502H430.8V11.6924H437.99V10.3493H432.38V6.39921Z" fill="white"/>
<path d="M452.21 3.0811C451.736 2.21208 451.025 1.58006 450.235 1.10604C449.366 0.632027 448.418 0.39502 447.312 0.39502H443.915V11.6924H447.312C448.102 11.6924 448.892 11.5344 449.603 11.2974C450.314 11.0603 450.867 10.6653 451.42 10.1123C451.973 9.5593 452.289 9.00629 452.605 8.29526C452.921 7.58424 453 6.87322 453 6.00419C452.921 4.97716 452.684 3.95013 452.21 3.0811ZM451.025 7.82125C450.788 8.37427 450.551 8.76928 450.156 9.16429C449.761 9.5593 449.287 9.79631 448.813 10.0333C448.26 10.1913 447.707 10.3493 446.996 10.3493H445.337V1.81706H446.996C447.865 1.81706 448.655 1.97507 449.287 2.37008C449.919 2.68609 450.472 3.23911 450.788 3.87113C451.104 4.50315 451.341 5.29317 451.341 6.0832C451.341 6.71521 451.262 7.26823 451.025 7.82125Z" fill="white"/>
<path d="M370.205 26.4659H364.438V21.8838H362.937V33.1811H364.438V27.809H370.205V33.1811H371.785V21.8838H370.205V26.4659Z" fill="white"/>
<path d="M387.428 23.3059C386.875 22.7529 386.243 22.3579 385.532 22.0419C384.821 21.7259 384.031 21.5679 383.241 21.5679C382.372 21.5679 381.582 21.7259 380.871 22.0419C380.16 22.3579 379.528 22.7529 378.975 23.3059C378.422 23.8589 378.027 24.491 377.711 25.202C377.395 25.913 377.237 26.703 377.237 27.4931C377.237 28.2831 377.395 29.0731 377.711 29.7841C378.027 30.4951 378.422 31.1272 378.975 31.6802C379.528 32.2332 380.16 32.6282 380.871 32.9442C381.582 33.2602 382.372 33.4182 383.241 33.4182C384.11 33.4182 384.821 33.2602 385.532 32.9442C386.243 32.6282 386.875 32.2332 387.428 31.6802C387.981 31.1272 388.376 30.4951 388.692 29.7841C389.008 29.0731 389.166 28.2831 389.166 27.4931C389.166 26.703 389.008 25.913 388.692 25.202C388.376 24.491 387.981 23.8589 387.428 23.3059ZM387.27 29.3101C387.033 29.8631 386.717 30.3371 386.322 30.7322C385.927 31.1272 385.453 31.4432 384.979 31.6012C384.426 31.8382 383.873 31.9172 383.32 31.9172C382.53 31.9172 381.819 31.7592 381.108 31.3642C380.397 30.9692 379.923 30.4951 379.528 29.7841C379.133 29.1521 378.975 28.3621 378.975 27.4141C378.975 26.703 379.054 26.15 379.291 25.597C379.528 25.044 379.844 24.57 380.239 24.175C380.634 23.7799 381.108 23.4639 381.582 23.3059C382.056 23.1479 382.688 22.9899 383.241 22.9899C384.031 22.9899 384.742 23.1479 385.453 23.5429C386.085 23.9379 386.638 24.412 387.033 25.123C387.428 25.755 387.586 26.545 387.586 27.4931C387.586 28.1251 387.428 28.7571 387.27 29.3101Z" fill="white"/>
<path d="M400.621 28.994L396.197 21.8838H394.696V33.1811H396.118L396.039 24.4119L399.91 30.5741H401.095L404.809 24.4909V33.1811H406.31V21.8838H404.888L400.621 28.994Z" fill="white"/>
<path d="M414.052 27.888H418.95V26.5449H414.052V23.2268H419.661V21.8838H412.551V33.1811H419.661V31.7591H414.052V27.888Z" fill="white"/>
<path d="M430.326 27.019L428.983 26.624C428.43 26.466 427.956 26.308 427.64 26.071C427.324 25.913 427.087 25.676 426.929 25.518C426.771 25.281 426.692 25.044 426.692 24.807C426.692 24.412 426.771 24.0959 427.008 23.7799C427.245 23.5429 427.482 23.3059 427.877 23.1479C428.272 22.9899 428.667 22.9109 429.141 22.9109C429.536 22.9109 429.852 22.9109 430.247 22.9899C430.642 23.0689 430.958 23.1479 431.274 23.3059C431.59 23.4639 431.827 23.6219 432.143 23.8589L432.933 22.7529C432.538 22.4369 431.985 22.1209 431.353 21.8839C430.721 21.6469 430.089 21.5679 429.299 21.5679C428.746 21.5679 428.193 21.6469 427.719 21.8049C427.245 21.9629 426.771 22.1999 426.455 22.4369C426.06 22.7529 425.823 23.0689 425.586 23.4639C425.349 23.8589 425.27 24.333 425.27 24.807C425.27 25.518 425.507 26.15 425.981 26.624C426.455 27.098 427.245 27.4931 428.272 27.8091L429.536 28.1251C430.405 28.3621 431.037 28.6781 431.353 28.9941C431.669 29.3101 431.827 29.7051 431.827 30.1001C431.827 30.7322 431.59 31.1272 431.116 31.4432C430.642 31.7592 430.01 31.9172 429.22 31.9172C428.825 31.9172 428.43 31.8382 428.035 31.7592C427.64 31.6802 427.245 31.5222 426.929 31.3642C426.613 31.2062 426.218 30.9692 425.981 30.8112L425.191 31.9962C425.665 32.3912 426.297 32.7072 427.008 32.9442C427.719 33.1812 428.509 33.2602 429.22 33.2602C430.089 33.2602 430.8 33.1022 431.432 32.8652C432.064 32.6282 432.538 32.2332 432.854 31.6802C433.17 31.1272 433.328 30.5742 433.328 29.9421C433.328 29.1521 433.091 28.5201 432.617 28.0461C432.064 27.7301 431.353 27.3351 430.326 27.019Z" fill="white"/>
<path d="M324.937 65.414H308.189V40.5283C308.189 18.1706 326.359 0 348.717 0V16.7485C335.602 16.7485 325.016 27.4138 325.016 40.4492V65.414H324.937Z" fill="white"/>
<path d="M107.68 66.6781C89.2727 66.6781 74.3413 51.7466 74.3413 33.339C74.3413 14.9315 89.2727 0 107.68 0C126.088 0 141.019 14.9315 141.019 33.339C141.019 51.7466 126.088 66.6781 107.68 66.6781ZM107.68 16.8275C98.516 16.8275 91.0898 24.2537 91.0898 33.418C91.0898 42.5823 98.516 50.0085 107.68 50.0085C116.845 50.0085 124.271 42.5823 124.271 33.418C124.271 24.2537 116.845 16.8275 107.68 16.8275Z" fill="white"/>
<path d="M231.398 65.3351V1.34316H214.65V22.9108C202.72 9.63842 185.498 1.26416 166.3 1.26416H151.369V65.3351H168.196V18.1707C193.635 19.1187 214.097 39.8964 214.65 65.4141L231.398 65.3351Z" fill="white"/>
<path d="M269.082 65.3348H241.747V1.42188H269.082C286.7 1.42188 301.078 15.8003 301.078 33.4179C301.078 51.0354 286.7 65.3348 269.082 65.3348ZM258.496 48.5863H269.082C277.457 48.5863 284.251 41.7921 284.251 33.4179C284.251 25.0436 277.457 18.2494 269.082 18.2494H258.496V48.5863Z" fill="white"/>
<path d="M31.996 66.6778C14.3784 66.6778 0 52.2993 0 34.6818V1.34277H16.7485V34.7608C16.7485 43.1351 23.5427 49.9293 31.917 49.9293C40.2912 49.9293 47.0854 43.1351 47.0854 34.7608V1.34277H63.834V34.7608C63.992 52.3783 49.6925 66.6778 31.996 66.6778Z" fill="white"/>
</svg>
