<svg width="35" height="33" viewBox="0 0 35 33" fill="none" xmlns="http://www.w3.org/2000/svg">
<path d="M17.4804 0.678223C7.86034 0.678223 0 8.44634 0 17.9536V32.6782H35V17.9536C35 8.44634 27.1397 0.678223 17.4804 0.678223ZM23.4637 14.5913C24.9497 14.5913 26.162 15.7893 26.162 17.2579C26.162 18.7265 24.9497 19.9246 23.4637 19.9246C21.9777 19.9246 20.7654 18.7265 20.7654 17.2579C20.7654 15.7893 21.9777 14.5913 23.4637 14.5913ZM8.2905 17.9536C8.2905 12.9294 12.4358 8.87146 17.4804 8.87146C18.3408 8.87146 19.162 9.02605 19.9441 9.25793C16.8156 10.5719 14.6257 13.6637 14.6257 17.2966C14.6257 20.2724 16.1508 22.9004 18.4581 24.485H8.2905V17.9536Z" fill="white"/>
</svg>
