<?xml version="1.0" encoding="utf-8"?>
<!-- Generator: Adobe Illustrator 24.3.0, SVG Export Plug-In . SVG Version: 6.00 Build 0)  -->
<svg version="1.1" id="Layer_1" xmlns="http://www.w3.org/2000/svg" xmlns:xlink="http://www.w3.org/1999/xlink" x="0px" y="0px"
	 viewBox="0 0 1600 731" style="enable-background:new 0 0 1600 731;" xml:space="preserve">
<a id="_x32_62">
	<path d="M695.2,315.9l4.3,20.4l57.9-13c-0.1-3-0.1-4.8-0.1-4.8s-0.8-9.3-1.5-17.6l-60.9,13.7L695.2,315.9z"/>
</a>
<a id="_x32_61">
	<path d="M52.9,648.7l73.6-10.2c-5.2-8.5-4.5-18.5-1.8-27.4l-72.1,10L52.9,648.7z"/>
</a>
<a id="_x32_60">
	<path d="M52.3,593.5l81.7-11.3c-2.6-8-4.6-15.8-6-23.5l-76,10.5L52.3,593.5z"/>
</a>
<a id="_x32_59">
	<path d="M52.1,569.2l76-10.5c-1.7-9.1-2.7-17.9-3.1-26.2l-73.2,7L52.1,569.2z"/>
</a>
<a id="_x32_58">
	<path d="M51.7,539.5l73.2-7c-0.5-9.5-0.4-18.2,0.2-25.9l-73.6,7.1L51.7,539.5z"/>
</a>
<a id="_x32_57">
	<path d="M51.5,513.7l73.6-7c0.8-11.6,2.3-20.8,3.4-26.4l-77.3,7.3L51.5,513.7z"/>
</a>
<a id="_x32_56">
	<polygon points="50.9,460.9 129.9,453.3 127.6,426.9 50.7,436 	"/>
</a>
<a id="_x32_55">
	<path d="M50.7,436l76.9-9.1l-0.2-2.1c0,0-7.7-6-12.2-19.3l-64.7,7.6L50.7,436z"/>
</a>
<a id="_x32_54">
	<path d="M50.1,382.5l0.3,30.7l64.7-7.6c-0.1-0.2-0.1-0.4-0.2-0.6c-4.4-13.7,21.3-30.9,21.3-30.9l-2.6-8.4L50.1,382.5z"/>
</a>
<a id="_x32_53">
	<path d="M210.7,360.6l-2.1-11.7l-75,16.8l2.6,8.4c11.3,1.3,17.8,6,21.6,11.8l31.6-6.9l23.7-5.1L210.7,360.6z"/>
</a>
<a id="_x32_52">
	<path d="M213.9,378.6l-0.9-4.7l0,0l0,0l-23.7,5.1l-31.6,6.9c7.7,11.9,3.8,28.4,3.3,30.4l57.3-12.5L213.9,378.6z"/>
</a>
<a id="_x32_51">
	<path d="M218.5,403.8l-57.3,12.5c0,0.1-0.1,0.2-0.1,0.2l4.4,41.5l29.3-6.6l28.8-18.1l-3.7-20.5L218.5,403.8z"/>
</a>
<a id="_x32_50">
	<path d="M223.7,433.3c0,0,19.6-5.8,38.2,11.9c0,0,19.6,5.3,35.1,0c0,0,3-38.7-5-50.4l-72,17.9L223.7,433.3z"/>
</a>
<a id="_x32_49">
	<path d="M218.5,403.8l1.6,9l72-17.9c-0.1-0.2-0.2-0.3-0.4-0.5c-5.2-6.8-17.1-16.8-15.9-29.2L214,378.6L218.5,403.8z"/>
</a>
<a id="_x32_48">
	<path d="M208.6,348.9L208.6,348.9L208.6,348.9l2.1,11.7l2.4,13.3l0.9,4.7l61.7-13.5c0.7-7.6,6.4-16.3,21.8-25.6l-3.7-11
		L208.6,348.9z"/>
</a>
<a id="_x32_47">
	<path d="M358.2,314l-64.4,14.6l3.7,11c13-1.3,20.4,2.6,24.5,8.5l40.9-8.6L358.2,314z"/>
</a>
<a id="_x32_46">
	<path d="M367.6,365.7l-3.9-21.3l-0.9-4.8l-40.9,8.6c7.1,10.3,4.2,26.3,3.5,29.4L368,368L367.6,365.7z"/>
</a>
<a id="_x32_45">
	<path d="M372.1,390.4L368,368l-42.5,9.5c-0.1,0.3-0.1,0.5-0.1,0.5v11.2c1.4,5.1,2.4,11.2,3.2,17.8l44.7-10L372.1,390.4z"/>
</a>
<a id="_x32_44">
	<path d="M376.2,413.2l-3-16.2l-44.7,10c1.1,8.6,1.8,18.1,2.3,27.4l47.2-10.6L376.2,413.2z"/>
</a>
<a id="_x32_43">
	<path d="M380.1,434.4l-1.9-10.6l-47.2,10.6c0.5,9.4,0.7,18.7,0.8,26.7l51.1-11.5L380.1,434.4z"/>
</a>
<a id="_x32_42">
	<path d="M384.6,459.5l-1.8-9.9l-51.1,11.5c0.1,11,0,19.8-0.1,23.4l55.2-12.4L384.6,459.5z"/>
</a>
<a id="_x32_41">
	<path d="M392.6,503.7l-1.1-6.3l-62.9,14.1c-0.4,9.7-0.1,19.1,0.8,28.2l67-15.1L392.6,503.7z"/>
</a>
<a id="_x32_40">
	<path d="M397.4,530.1l-1-5.3l-67,15.1c0.8,8.7,2.1,17,3.6,24.8l67.8-15.2L397.4,530.1z"/>
</a>
<a id="_x32_30">
	<path d="M402,555.6l-1.2-6.3l-67.8,15.2c2,10.4,4.6,19.8,6.9,27.7l65.9-14.8L402,555.6z"/>
</a>
<a id="_x32_20">
	<path d="M406.8,581.9l-0.8-4.5L340,592.3c5,16.3,9.7,26.6,9.7,26.6l64.4,4l-3.1-17.3L406.8,581.9z"/>
</a>
<a id="_x32_10">
	<polygon points="414.2,622.8 472.3,622.8 477.3,612.2 472,591.9 411.1,605.6 	"/>
</a>
<a id="_x32_09">
	<polygon points="411.1,605.6 472,591.9 465.9,568.7 406.8,581.9 	"/>
</a>
<a id="_x32_08">
	<path d="M465.9,568.7l-59.1,13.3l-0.8-4.5l-3.9-21.8l57.9-13c0.4,2.4,0.7,4.4,0.9,5.8c0.2,1.5,0.4,2.4,0.4,2.4L465.9,568.7z"/>
</a>
<a id="_x32_07">
	<path d="M460,542.6l-57.9,13l-1.2-6.3l-3.5-19.3l59.4-13.3C457.8,527.4,459.1,536.5,460,542.6z"/>
</a>
<a id="_x32_06">
	<path d="M456.8,516.7l-59.4,13.3l-1-5.3l-3.8-21l62.1-14C455.2,499.2,455.9,508.4,456.8,516.7z"/>
</a>
<a id="_x32_05">
	<path d="M454.7,489.8l-62.1,14l-1.1-6.3l-3-16.6l65.9-14.8C454.1,473.8,454.3,481.9,454.7,489.8z"/>
</a>
<a id="_x32_04">
	<path d="M456.1,443.4c-0.1,0.5-0.1,0.9-0.2,1.3c-0.9,6.6-1.4,13.8-1.6,21.3l-65.9,14.8l-1.6-8.9l-2.3-12.5L456.1,443.4z"/>
</a>
<a id="_x32_03">
	<path d="M456.1,443.4l-71.5,16.1l-1.8-9.9l-2.8-15.1l76.8-17.3C457.3,425.7,457.2,434.6,456.1,443.4z"/>
</a>
<a id="_x32_02">
	<path d="M456.8,417.2L380,434.4l-1.9-10.6l-1.9-10.6l78.2-17.6C455.5,402.3,456.4,409.6,456.8,417.2z"/>
</a>
<a id="_x32_01">
	<path d="M454.4,395.6l-78.2,17.6l-3-16.2l-1.2-6.6l77.2-17.4C451.1,379.2,452.9,386.9,454.4,395.6z"/>
</a>
<a id="_x32_00">
	<path d="M441,349.2l-73.4,16.5l-3.9-21.3l66.5-15c0.2,0.5,0.5,0.9,0.8,1.4C435.2,336.9,438.6,343.8,441,349.2z"/>
</a>
<a id="_x31_99">
	<path d="M430.3,329.4l-66.5,15l-0.9-4.8l-4.6-25.5l91-20.7l2.6,6.6C451.9,299.9,424.8,317,430.3,329.4z"/>
</a>
<a id="_x31_98">
	<path d="M577.9,565.1l-3.4-16.9l-76,17.4c1.9,5.4,3.6,11,4.8,16.6c0.8,3.5,1.9,7.6,3.3,11.6l73.5-16.9L577.9,565.1z"/>
</a>
<a id="_x31_97">
	<path d="M694.9,314.5l60.9-13.7c-0.5-5.5-0.9-10.6-1.1-12.4c-0.4-4.4-4.9-6.1-4.9-6.1c-0.7-0.7-1.3-1.4-1.9-2.1l-57.5,12.9
		L694.9,314.5z"/>
</a>
<a id="_x31_96">
	<path d="M689.7,289.6l0.7,3.5l57.5-12.9c-9.3-10.6-10.3-19.8-7.6-27.1l-55.7,12.5L689.7,289.6z"/>
</a>
<a id="_x31_95">
	<path d="M679.7,242l4.2,20.3l0.7,3.2l55.7-12.5c4.9-13.5,22-21.2,22-21.2v-9.3L679.7,242z"/>
</a>
<a id="_x31_94">
	<path d="M848.9,203.5l-86.6,19v9.3c12.4,0,19.3,4.7,22.8,11.1l68.1-15.4L848.9,203.5z"/>
</a>
<a id="_x31_93">
	<path d="M853.3,227.6L785.1,243c4.9,8.9,3.4,21.2,1.9,28.4l71.3-16L853.3,227.6z"/>
</a>
<a id="_x31_92">
	<path d="M858.3,255.3l-71.3,16c-0.8,3.6-1.6,5.9-1.6,5.9l1.9,21.4l75.8-17.1L858.3,255.3z"/>
</a>
<a id="_x31_91">
	<path d="M787.4,298.8l5.2,57.2c14.2,13.7,24-5.3,24-5.3l48.8-57l-2.2-12L787.4,298.8z"/>
</a>
<a id="_x31_90">
	<path d="M909.3,261.8c6.8-4.2,13.6-8.2,19.9-11.9l-10.8-61.3l-22.4,4.8l3,15.2L909.3,261.8z"/>
</a>
<a id="_x31_89">
	<path d="M536.3,355.5l-54.4,12.2c-1.6-8.9-3.2-16.8-4.6-22.8v-2.2c0,0,0.2-0.7,0.5-1.8l53.3-12l0.4,2.3l4.4,22.3L536.3,355.5z"/>
</a>
<a id="_x31_88">
	<path d="M541.2,380.1l-55,12.4c-1.4-8.4-2.9-16.9-4.3-24.7l54.4-12.2l4.2,21L541.2,380.1z"/>
</a>
<a id="_x31_87">
	<path d="M546,404.7l-55.8,12.8c-1.2-7.8-2.6-16.4-4.1-25l55-12.4l4,20L546,404.7z"/>
</a>
<a id="_x31_86">
	<path d="M551.1,430.1l-56.8,13.1c-0.8-5.4-2.3-14.7-4-25.7l55.8-12.8L551.1,430.1z"/>
</a>
<a id="_x31_85">
	<path d="M491,468.7c1-6.5,2.3-13.4,3.9-20.5c0,0-0.3-1.9-0.8-5.1l56.9-13l4.3,21.5l0.4,2.3L491,468.7z"/>
</a>
<a id="_x31_84">
	<path d="M560.5,477.7l-72,16.5c0.4-8,1.2-16.5,2.5-25.5l64.8-14.9L560.5,477.7z"/>
</a>
<a id="_x31_83">
	<path d="M565,500.4l-76.3,16.8c0-0.1,0-0.2,0-0.4c-0.4-7-0.6-14.5-0.2-22.6l72-16.5l0.6,2.8L565,500.4z"/>
</a>
<a id="_x31_82">
	<path d="M569.7,523.9l-77.9,17.6c-1.4-7-2.5-15.1-3.1-24.2l76.3-16.8l1.7,8.2L569.7,523.9z"/>
</a>
<a id="_x31_81">
	<path d="M506.7,593.9c3.4,9.8,8.9,19.5,17.2,20.9c17.3,3.1,60.8-15.5,60.8-15.5l-4.4-22.3L506.7,593.9z"/>
</a>
<a id="_x31_80">
	<path d="M580.3,577l4.4,22.3c54.2-19.9,54.6-34.9,54.6-34.9l-5.3-12.3l-56.2,12.9L580.3,577z"/>
</a>
<a id="_x31_79">
	<path d="M634,552.2l-56.2,12.9l-3.4-16.9l-2.4-12l51.4-11.8c1.3,4.5,2.7,8.9,4.2,13.2L634,552.2z"/>
</a>
<a id="_x31_78">
	<path d="M613.9,468.3l-52.8,12.2l-0.6-2.8l-4.7-23.8l-0.4-2.3l57-13.1c0.1,2.6,0.1,4,0.1,4S612.6,453.1,613.9,468.3z"/>
</a>
<a id="_x31_77">
	<path d="M546,404.7l5,25.5l4.3,21.5l57-13.1c-0.3-9.5-1-34.1-1-54l-66.2,15.5L546,404.7z"/>
</a>
<a id="_x31_76">
	<path d="M541.2,380.1l4,20l66.1-15.5c0-10.3,0.2-19.4,0.9-24.2l-71.7,16.1L541.2,380.1z"/>
</a>
<a id="_x31_75">
	<path d="M536.3,355.5l4.2,21l71.7-16.2c0-0.1,0.1-0.3,0.1-0.4c0.9-6.3-0.7-14.8-3.1-22.8l-73.3,16.5L536.3,355.5z"/>
</a>
<a id="_x31_74">
	<path d="M535.9,353.5l73.3-16.5c-2.7-9.5-6.3-18.2-7.8-21.6l-69.9,15.7L535.9,353.5z"/>
</a>
<a id="_x31_73">
	<path d="M531,328.9l0.4,2.3l69.9-15.7c-0.4-1-0.7-1.5-0.7-1.5s-6.6-0.9-11.9-20.3l-62.1,14L531,328.9z"/>
</a>
<a id="_x31_72">
	<path d="M520.7,277.3l4.7,24l1.2,6.4l62.1-14c-0.1-0.2-0.1-0.3-0.1-0.5c-5.4-19.9,18.6-25.6,18.6-25.6l-1.8-9.7L520.7,277.3z"/>
</a>
<a id="_x31_71">
	<path d="M679.7,242l-74.2,15.9l1.8,9.7c10.7-0.7,17.5,2.4,21.8,7l54.9-12.4L679.7,242z"/>
</a>
<a id="_x31_70">
	<path d="M684.6,265.5l-0.7-3.2l-54.9,12.4c8.5,9.2,7,24.5,6.7,27l53.9-12.1L684.6,265.5z"/>
</a>
<a id="_x31_69">
	<path d="M694.9,314.5l-4.5-21.4l-0.7-3.5l-53.9,12.1c-0.1,0.2-0.1,0.4-0.1,0.4l4,26.3l55.5-12.5L694.9,314.5z"/>
</a>
<a id="_x31_68">
	<polygon points="699.5,336.2 695.2,315.9 639.7,328.3 643.4,353.1 700.3,340.2 	"/>
</a>
<a id="_x31_67">
	<path d="M704.9,362.3l-4.6-22L643.4,353l4.2,28.1l0,0l58.5-13.2L704.9,362.3z"/>
</a>
<a id="_x31_66">
	<path d="M709.9,385.6l-3.7-17.6l-58.5,13.2c0,0.3,0.2,10,0.4,23.5l62.9-14.1L709.9,385.6z"/>
</a>
<a id="_x31_65">
	<path d="M715.3,411.6l-4.4-21L648,404.7c0.1,7.6,0.1,16.5,0.1,25.5l67.9-15.3L715.3,411.6z"/>
</a>
<a id="_x31_64">
	<path d="M720.7,437.5l-73.1,16.4c0-0.9,0-1.7,0.1-2.5c0.2-6.9,0.3-14.1,0.4-21.2L716,415l4.2,20.3L720.7,437.5z"/>
</a>
<a id="_x31_63">
	<path d="M726.1,462.8L650,479.9c-1.4-9.1-2.3-18.1-2.3-26l73.1-16.4L726.1,462.8z"/>
</a>
<a id="_x31_62">
	<path d="M730.7,485.1l-76.1,18.3c-1.8-7.5-3.4-15.5-4.7-23.4l76.1-17.1L730.7,485.1z"/>
</a>
<a id="_x31_61">
	<path d="M777.1,422.4l-56.9,12.8l-4.2-20.3l-0.7-3.3l53.1-11.9c0.6,1.4,1.2,2.8,1.9,4C770.3,403.7,778,410.7,777.1,422.4z"/>
</a>
<a id="_x31_60">
	<path d="M710.9,390.5l4.4,21l53.1-11.9c-3-7-5.2-16.2-6.8-25.7l-51.7,11.6L710.9,390.5z"/>
</a>
<a id="_x31_59">
	<path d="M700.3,340.2l4.6,22l53.8-12.1c-0.9-11.4-1.2-21.4-1.3-27l-57.9,13L700.3,340.2z"/>
</a>
<path id="_x31_58" d="M1505.9,137.3c24.2,1.3,23.6-7.8,32.7-19.5c9.2-11.7,0-61.9,0-61.9l-34.4,7.3l-2.2,74.7L1505.9,137.3z"/>
<a id="_x31_57">
	<path d="M871.4,198.7l-22.6,4.8l4.4,24l5,27.7l4.8,26.4l2.2,12c4-4.7,11.9-10.8,21.5-17.4L871.4,198.7z"/>
</a>
<path id="_x31_56" d="M1000.5,403l32.3-2.3l-0.4-11.9l-0.4-11C1021.1,383.3,1010.1,391.3,1000.5,403z"/>
<a id="_x31_55">
	<path d="M909.3,261.8L899,208.7l-3-15.2l0,0l0,0l-24.5,5.3l15.4,77.6C893.7,271.6,901.5,266.6,909.3,261.8z"/>
</a>
<a id="_x31_54">
	<path d="M951.6,237.3l-9.2-53.7l-24,5.1l10.8,61.3C938.2,244.8,946.1,240.3,951.6,237.3z"/>
</a>
<a id="_x31_53">
	<path d="M959.3,233c3.8-2.8,9.3-5.4,16.1-7.8l-8.9-46.8l-24.1,5.1l9.2,53.7C956.4,234.6,959.3,233,959.3,233z"/>
</a>
<a id="_x31_52">
	<path d="M1000.2,218.2l-8.2-45.3l-25.6,5.4l8.9,46.8C982.5,222.6,991,220.3,1000.2,218.2z"/>
</a>
<a id="_x31_51">
	<path d="M1027.4,213l-9.7-45.6l-25.7,5.5l8.2,45.3C1008.9,216.3,1018.1,214.5,1027.4,213z"/>
</a>
<a id="_x31_50">
	<path d="M1056.1,208.7l-11.2-47.1l-27.1,5.8l9.7,45.6C1037.2,211.3,1046.9,209.9,1056.1,208.7z"/>
</a>
<a id="_x31_49">
	<path d="M1085.1,205.3l-13.6-49.4l-26.7,5.7l11.2,47.1C1067,207.3,1077.1,206.2,1085.1,205.3z"/>
</a>
<a id="_x31_48">
	<path d="M1104,203.5c1.6,0.1,3.3,0.1,5,0.2l-12.9-53.1l-24.5,5.3l13.6,49.4C1096.6,204.1,1104,203.5,1104,203.5z"/>
</a>
<a id="_x31_47">
	<polygon points="1399.6,383.6 1353,384.5 1344.9,384.7 1343.2,359.1 1394.8,357.9 	"/>
</a>
<a id="_x31_46">
	<polygon points="1343.2,359.1 1394.8,357.9 1394,353.5 1394.6,335.9 1341.7,336.6 	"/>
</a>
<a id="_x31_45">
	<polygon points="1341.7,336.6 1394.6,335.9 1395.6,310.9 1340.1,311.8 	"/>
</a>
<a id="_x31_44">
	<polygon points="1340.1,311.8 1395.6,310.9 1396.5,288.6 1338.6,289.6 	"/>
</a>
<a id="_x31_43">
	<polygon points="1338.6,289.6 1396.5,288.6 1397.4,265.1 1337.1,266.6 	"/>
</a>
<a id="_x31_42">
	<path d="M1397.4,265.1l1.2-29.4c0,0,0-7.8-4.6-7.8c-4.6,0-58.9,7.8-58.9,7.8l2,30.9L1397.4,265.1z"/>
</a>
<a id="_x31_41">
	<path d="M1032.3,388.8l0.4,11.9l21.3-1.5l28.1-2l-3-31.5c0,0-22.8-0.4-47.2,12.1l0,0l0,0L1032.3,388.8z"/>
</a>
<a id="_x31_40">
	<polygon points="1032.7,400.7 1032.7,400.7 1033.8,429.3 1084.8,425.7 1082.1,397.1 1054,399.2 	"/>
</a>
<a id="_x31_39">
	<path d="M1034,435.6l0.7,17.6c7.1-0.1,15.6,1.2,26,5.2l27.5,2.6l-3.4-35.3l-51,3.6L1034,435.6z"/>
</a>
<a id="_x31_38">
	<path d="M1047.3,590.7c23.5-2.3,41,0.6,41,0.6c11.8-0.7,14.4-7.2,14.4-7.2l-3-28.6l-54.9,2.4L1047.3,590.7z"/>
</a>
<a id="_x31_37">
	<path d="M989.9,560.2c0.7,9.6,1.7,18.9,3.4,25.8c5.2,22.2,15.7,13,15.7,13c13.3-4.8,26.5-7.2,38.3-8.4l-2.5-32.9L989.9,560.2z"/>
</a>
<a id="_x31_36">
	<path d="M1044.7,557.8l-2.5-32.5c-20.8,0.7-40.4-9-40.4-9h-13.1c0,0-0.3,22.6,1.2,43.9L1044.7,557.8z"/>
</a>
<a id="_x31_35">
	<path d="M981.2,438.1c-3.1,9.1-5.5,19.2-6.9,30.7l33.4-3.2c0,0,7.4-12,27-12.4l-0.7-17.6L981.2,438.1z"/>
</a>
<a id="_x31_34">
	<path d="M1033.8,429.3l-1.1-28.6l-32.3,2.3c-7.6,9.2-14.3,20.7-19.2,35.1l52.8-2.5L1033.8,429.3z"/>
</a>
<a id="_x31_33">
	<path d="M706.2,368l3.7,17.6l51.7-11.6c-1.3-8-2.2-16.2-2.8-23.7l-53.8,12.1L706.2,368z"/>
</a>
<a id="_x31_32">
	<path d="M1133.1,203l-15.3-57.1l-21.8,4.7l12.9,53.1C1116.4,203.8,1124.6,203.6,1133.1,203z"/>
</a>
<a id="_x31_31">
	<path d="M1159.6,200.6l-15.5-60.2l-26.2,5.6l15.3,57.1C1141.7,202.5,1150.6,201.6,1159.6,200.6z"/>
</a>
<a id="_x31_30">
	<path d="M1182.6,197.6l-16-62l-22.5,4.8l15.5,60.2C1167.3,199.7,1175,198.7,1182.6,197.6z"/>
</a>
<a id="_x31_29">
	<path d="M1203.4,194.4l-16.2-63.2l-20.5,4.4l16,62C1189.7,196.6,1196.7,195.5,1203.4,194.4z"/>
</a>
<a id="_x31_28">
	<path d="M1225.8,190.3l-16.5-63.9l-22.3,4.8l16.2,63.2C1211.4,193,1219,191.6,1225.8,190.3z"/>
</a>
<a id="_x31_27">
	<path d="M1251.3,185.3l-16.5-64.4l-25.4,5.4l16.5,63.9C1237.1,188.2,1246,186.4,1251.3,185.3z"/>
</a>
<a id="_x31_26">
	<path d="M1256.5,184.2l16.3-3.4l-16.6-64.4l-21.5,4.6l16.5,64.4C1254.7,184.6,1256.5,184.2,1256.5,184.2z"/>
</a>
<a id="_x31_25">
	<polygon points="1290.4,177 1276.9,111.9 1256.2,116.3 1272.8,180.7 	"/>
</a>
<a id="_x31_24">
	<polygon points="1316.3,171.5 1302.9,106.4 1276.9,111.9 1290.4,177 	"/>
</a>
<a id="_x31_23">
	<polygon points="1337.9,166.9 1324.5,101.7 1302.9,106.4 1316.3,171.5 	"/>
</a>
<a id="_x31_22">
	<polygon points="1361.2,162 1347.8,96.8 1324.5,101.7 1337.9,166.9 	"/>
</a>
<a id="_x31_21">
	<polygon points="1385.2,157 1371.7,91.6 1347.8,96.8 1361.2,162 	"/>
</a>
<a id="_x31_20">
	<polygon points="1404.4,152.9 1406,152.7 1393.2,87 1371.7,91.6 1385.2,157 	"/>
</a>
<a id="_x31_10">
	<polygon points="1431.4,148.8 1416.3,82.1 1393.2,87 1406,152.7 	"/>
</a>
<a id="_x31_09">
	<polygon points="1455.7,145 1438.9,77.2 1438.9,77.2 1438.9,77.2 1416.3,82.1 1431.4,148.8 	"/>
</a>
<a id="_x31_08">
	<polygon points="1455.7,145 1455.7,145 1481.7,141 1462.9,72.1 1438.9,77.2 	"/>
</a>
<a id="_x31_07">
	<polygon points="1502,137.9 1504.2,63.2 1462.9,72.1 1481.7,141 	"/>
</a>
<a id="_x31_06">
	<polygon points="1360.1,529.6 1362.9,551.7 1436,552.5 1430.7,527.9 1359.8,527.1 	"/>
</a>
<a id="_x31_05">
	<path d="M1430.7,527.9l-9.2-42.1c0,0-22.3-7.2-34.7,7.2c-12.4,14.3-28.8,20.2-28.8,20.2l1.8,14L1430.7,527.9z"/>
</a>
<a id="_x31_04">
	<path d="M1347.5,424.5c0,0,42.6,26.7,62.9,17l-6.5-35.2l-57.4,0.9L1347.5,424.5z"/>
</a>
<a id="_x31_03">
	<path d="M1335,235.6l-57.6,6.5c-2.3,8.8-4.1,17.4-5.5,26l65.1-1.6L1335,235.6z"/>
</a>
<a id="_x31_02">
	<path d="M1337.1,266.6l-65.1,1.6c-1.2,7.7-2.2,15.3-2.8,22.6l69.4-1.2L1337.1,266.6z"/>
</a>
<a id="_x31_01">
	<path d="M1338.6,289.6l-69.4,1.2c-0.7,7.7-1.2,15.1-1.5,22.2l72.4-1.1L1338.6,289.6z"/>
</a>
<a id="_x31_00">
	<path d="M1340.1,311.8l-72.4,1.1c-0.4,8.1-0.6,15.8-0.7,22.8c0,0.6,0,1.3,0,2l74.7-1L1340.1,311.8z"/>
</a>
<a id="_x39_9">
	<path d="M1343.2,359.1l-75.2,1.8c-0.7-9.4-1.1-17.6-1.1-23.2l74.8-1L1343.2,359.1z"/>
</a>
<a id="_x39_8">
	<path d="M1344.9,384.7l-10.9,0.2l-63.7,1.4c-0.9-8.9-1.6-17.6-2.2-25.5l75.2-1.8L1344.9,384.7z"/>
</a>
<a id="_x39_7">
	<path d="M1346.4,407.2l-73.9,1.2c-0.7-7.1-1.5-14.6-2.2-22l63.7-1.4l10.9-0.2L1346.4,407.2z"/>
</a>
<a id="_x39_6">
	<path d="M1366.5,579.7l2.6,20.7l70.5,0.7c0.1-0.1,0.1-0.2,0.1-0.3l3.9-13.3l-2-8.9l-75.5-0.8L1366.5,579.7z"/>
</a>
<a id="_x39_5">
	<polygon points="1363.3,555.1 1366.2,578 1441.7,578.8 1436,552.5 1362.9,551.7 	"/>
</a>
<a id="_x39_4">
	<path d="M1372.8,629.8l-3.2-25l-61.1,2c1.2,5,2.6,11,4.3,17.7c1.1,4.4,1,8,0.1,10.8l60.4-2L1372.8,629.8z"/>
</a>
<a id="_x39_3">
	<path d="M1312.9,635.3c-3.9,12.6-23,12.6-23,12.6v14.3h87.1l-3.7-28.9L1312.9,635.3z"/>
</a>
<a id="_x39_2">
	<polygon points="1362.9,551.7 1360.1,529.6 1297.9,532.7 1300.8,557.2 1363.3,555.1 	"/>
</a>
<a id="_x39_1">
	<path d="M1369.1,600.5l-2.6-20.7l-62.8,2l0.6,5.6c0,0,1.4,7,4.2,19.5l61.1-2L1369.1,600.5z"/>
</a>
<a id="_x39_0">
	<path d="M1289.9,647.9v14.3h-75.3l-2.2-26l-0.1-0.6l-0.5-5.7l52-3.2C1267.1,649.7,1289.9,647.9,1289.9,647.9z"/>
</a>
<a id="_x38_9">
	<path d="M1267,600.9c-3.1,11-3.8,19.4-3,25.9l-52,3.2l-2.5-30l58.1-1.4C1267.1,600,1267,600.9,1267,600.9z"/>
</a>
<a id="_x38_8">
	<path d="M1204.6,542l0.7,8.1l65.7-1.6c-0.9-5.3-2-10.3-2.8-14.8c-0.4-2.6-0.9-5.2-1.5-7.8l-63.3,1.5L1204.6,542z"/>
</a>
<a id="_x38_7">
	<path d="M1202.6,516.6l0.9,10.9l63.3-1.5c-1.5-8-3.3-15.8-5.2-23.7l-60.2-0.4L1202.6,516.6z"/>
</a>
<a id="_x38_6">
	<path d="M1196.5,443.8l0.9,10.3l51-1.2c-2.5-8.9-4.9-17.8-7.2-26.7l-46,1.1L1196.5,443.8z"/>
</a>
<a id="_x38_5">
	<path d="M1234.9,399.6l-41.9,1l-0.1-1.7l-0.9-11.2l-1.1-13.5l-0.3-3.6l39.4-1c0.6,4.5,1.2,9.1,2,13.6
		C1232.8,388.8,1233.8,394.1,1234.9,399.6z"/>
</a>
<a id="_x38_4">
	<path d="M1229.9,369.7l-39.4,1l-1.7-21.1l-0.7-8.1l39.5-1C1228,350.3,1228.7,360,1229.9,369.7z"/>
</a>
<a id="_x38_3">
	<path d="M1186.8,326.5l1.2,14.9l39.5-1c-0.4-8.6-0.6-17.1-0.9-25.6l-40.7,1L1186.8,326.5z"/>
</a>
<a id="_x38_2">
	<path d="M1184.8,301.5l1.2,14.4l40.7-1c-0.1-4.7-0.2-9.4-0.3-14.1l2.3-12.1l-44.9,1.1L1184.8,301.5z"/>
</a>
<a id="_x38_1">
	<polygon points="1228.7,288.7 1235.5,252.6 1229,250 1181.2,258.4 1183.8,289.8 	"/>
</a>
<a id="_x38_0">
	<path d="M1509.1,266.9c0.6-7,1.1-13,1.3-18.4l-82.8-1.8c-0.4,8.8-0.3,18.5-0.1,25.8l81.1,1.8C1508.7,271.8,1509,269.4,1509.1,266.9
		z"/>
</a>
<a id="_x37_9">
	<path d="M1508.6,274.2l-81.1-1.8c0.2,6.7,0.5,11.4,0.5,11.4s-0.2,3.1-0.5,8.3l80.3,1.8C1507.9,288,1508,281.5,1508.6,274.2z"/>
</a>
<a id="_x37_8">
	<path d="M1511.1,330.7c0,0-1.1-3.9-2-11.8l-82.5-1.8c-0.1,7.4-0.2,15.3,0.1,22.8l86.6,1.9L1511.1,330.7z"/>
</a>
<a id="_x37_7">
	<path d="M1513.1,341.8l-86.6-1.9c0.3,9.5,1,18.3,2.3,24.7l88.5,0.4L1513.1,341.8z"/>
</a>
<a id="_x37_6">
	<path d="M1519.7,377l-2.2-11.9l-0.1-0.2l-88.5-0.4c0.3,1.5,0.7,2.8,1,4c1.4,4.3,3.4,11.4,5.8,19.8l83,1.8L1519.7,377z"/>
</a>
<a id="_x37_5">
	<path d="M1527.5,573.1l-0.1-6.2l-51.9,0.1l5.7,30.8c0,0,0.9,1.3,2.3,3.5l46.6-0.3L1527.5,573.1z"/>
</a>
<a id="_x37_4">
	<path d="M1493.5,634.4c1.9-12.2-5.9-26.7-10-33.2l46.6-0.3l3.2,33.5H1493.5z"/>
</a>
<a id="_x37_3">
	<path d="M1536,662.2h-64.1v-9.1c14.6-3.1,20.4-10.3,21.6-18.7h39.9L1536,662.2z"/>
</a>
<a id="_x37_2">
	<path d="M1200.6,492.7l0.7,9.3l60.2,0.4c-1.9-7.8-3.9-15.5-6-23.3l-56,1.3L1200.6,492.7z"/>
</a>
<a id="_x37_1">
	<path d="M1198.6,468.6l1,11.8l56-1.3c-1.4-5.2-2.8-10.3-4.2-15.5c-1-3.5-2-7-3-10.6l-51,1.2L1198.6,468.6z"/>
</a>
<a id="_x37_0">
	<path d="M1194.7,421.3l0.5,6l46-1.1c-2.3-8.8-4.4-17.7-6.3-26.6l-41.9,1L1194.7,421.3z"/>
</a>
<a id="_x36_9">
	<polygon points="1183.8,289.8 1181.2,258.4 1127.5,276 1121.6,282.2 1119.3,303 1184.8,301.5 	"/>
</a>
<a id="_x36_8">
	<polygon points="1186,315.9 1184.8,301.5 1119.3,303 1116.6,328.1 1186.8,326.5 	"/>
</a>
<a id="_x36_7">
	<polygon points="1188.7,349.5 1114,351.3 1116.6,328.1 1186.8,326.5 1188,341.5 	"/>
</a>
<a id="_x36_6">
	<polygon points="1190.8,374.2 1112.5,376 1111.8,371.1 1114,351.3 1188.7,349.5 1190.5,370.7 	"/>
</a>
<a id="_x36_5">
	<polygon points="1192.8,398.9 1153.8,399.8 1115.7,400.6 1112.5,376 1190.8,374.2 1191.9,387.7 	"/>
</a>
<a id="_x36_4">
	<polygon points="1194.7,421.3 1118.7,423.1 1115.7,400.6 1153.8,399.8 1192.8,398.9 1193,400.6 	"/>
</a>
<a id="_x36_3">
	<polygon points="1195.2,427.3 1194.7,421.3 1118.7,423.1 1121.7,445.5 1196.5,443.8 	"/>
</a>
<a id="_x36_2">
	<polygon points="1197.4,454.2 1196.5,443.8 1121.7,445.5 1125.1,471.6 1198.6,468.6 	"/>
</a>
<a id="_x36_1">
	<polygon points="1199.5,480.4 1198.6,468.6 1125.1,471.6 1128.3,495.7 1200.6,492.7 	"/>
</a>
<a id="_x36_0">
	<polygon points="1201.3,501.9 1200.6,492.7 1128.3,495.7 1131.5,519.6 1202.6,516.6 	"/>
</a>
<a id="_x35_9">
	<polygon points="1203.5,527.5 1202.6,516.6 1131.5,519.6 1134.8,545 1204.6,542 	"/>
</a>
<a id="_x35_8">
	<path d="M1205.3,550.2l-0.7-8.1l-69.8,2.9l2.5,18.9c0,0,0.8,1,2,2.9l67.3-1.2L1205.3,550.2z"/>
</a>
<a id="_x35_7">
	<path d="M1208.6,590.4l-57.6,2.4c-3.6-12.5-8.9-21.7-11.7-26.1l67.3-1.2L1208.6,590.4z"/>
</a>
<a id="_x35_6">
	<path d="M1078.4,623.1c-0.2-0.1-0.4-0.1-0.6-0.1l4.5,41.2l50.4-0.7l-3.6-34.3C1120.6,629,1105.5,627.7,1078.4,623.1z"/>
</a>
<a id="_x35_5">
	<path d="M1032.1,624.8l3.8,40.1l46.4-0.7l-4.5-41.2C1060.4,620.2,1045,621.7,1032.1,624.8z"/>
</a>
<a id="_x35_4">
	<path d="M988.7,646.6c0,0-9.8-0.9-18.3-4.7l0.2,23.9l65.2-1l-3.8-40.1C1004.7,631.6,988.7,646.6,988.7,646.6z"/>
</a>
<a id="_x35_3">
	<path d="M958.6,628.4c-0.1-2.1-0.2-5.6-0.4-10L876,638.3c-3.6,14.9-7.7,29.1-7.7,29.1l102.3-1.5l-0.2-23.9
		C964.3,639.2,958.9,634.9,958.6,628.4z"/>
</a>
<a id="_x35_2">
	<path d="M957,591.5l-75.2,3c0.1,7.5,0,13.8-0.4,17.6c-0.8,6.4-3,16.5-5.4,26.3l82.2-19.9C957.9,611.3,957.5,601.7,957,591.5z"/>
</a>
<a id="_x35_1">
	<path d="M955.5,558.1l-74.8,5.1c0.6,10.5,1,21.8,1.1,31.2l75.2-3C956.5,580.5,956,568.7,955.5,558.1z"/>
</a>
<a id="_x35_0">
	<path d="M954.3,531.8l-74.8,9.9c0.4,5.8,0.8,13.5,1.2,21.6l74.8-5.1C955,547,954.5,537.3,954.3,531.8z"/>
</a>
<a id="_x34_9">
	<path d="M954.1,526.7c-2.1-9.4-3.7-18.1-4.9-26.3l-72.9,14.7c1.2,9.7,2.5,15.5,2.5,15.5s0.3,4.3,0.7,11l74.8-9.9
		C954.1,528.6,954.1,526.7,954.1,526.7z"/>
</a>
<a id="_x34_8">
	<path d="M946.9,477.8l-73.2,5.8c0.4,12.6,1.5,23.5,2.6,31.7l72.9-14.7C948.1,492.4,947.3,484.8,946.9,477.8z"/>
</a>
<a id="_x34_7">
	<path d="M947.3,452.2l-72.6-7.6c-1.2,13.8-1.4,27.1-1,38.9l73.2-5.8C946.4,468.4,946.6,459.9,947.3,452.2z"/>
</a>
<a id="_x34_6">
	<path d="M951.3,428.8l-70.4-21c-3.2,12.2-5.2,24.7-6.2,36.8l72.6,7.6C948,443.5,949.4,435.7,951.3,428.8z"/>
</a>
<a id="_x34_5">
	<path d="M959.3,407.5l-63.6-37.4c-6.6,11.8-11.4,24.7-14.8,37.6l70.4,21C953.4,420.7,956.2,413.7,959.3,407.5z"/>
</a>
<a id="_x34_4">
	<path d="M972.7,385.8l-53.3-45.9c-0.9,0.9-1.8,1.7-2.6,2.5c-8.5,8.3-15.5,17.6-21.1,27.7l63.6,37.4
		C963.4,399,968.2,392.1,972.7,385.8z"/>
</a>
<a id="_x34_3">
	<path d="M984.2,369.1c0.9-1.6,2-3.2,3.4-4.7l-38.4-48.2c-10.2,7-20.2,14.8-29.8,23.7l53.3,45.9C977,379.8,981.1,374.5,984.2,369.1z
		"/>
</a>
<a id="_x34_2">
	<path d="M1007.3,349.2l-24.4-52.7c-11.1,5.6-22.5,12.2-33.8,19.8l38.4,48.2C992.2,359,999.2,353.9,1007.3,349.2z"/>
</a>
<a id="_x34_1">
	<path d="M1033,336.7l-16.3-55c-10.6,4-22,8.8-33.8,14.7l24.4,52.7C1015.3,344.5,1024.3,340.3,1033,336.7z"/>
</a>
<a id="_x34_0">
	<path d="M1054.2,328.7l-10.2-56.1c-7.9,2.3-17.2,5.2-27.3,9l16.3,55C1040.6,333.5,1047.9,330.8,1054.2,328.7z"/>
</a>
<a id="_x33_9">
	<path d="M1518.8,390.2l-83-1.8c2.2,7.9,4.7,16.9,7.2,26.1l74.2,1.7L1518.8,390.2z"/>
</a>
<a id="_x33_8">
	<path d="M1516.3,428.4l0.8-12.3l-74.2-1.7c1.9,7,3.8,14,5.5,20.5l69.5,1.5L1516.3,428.4z"/>
</a>
<a id="_x33_7">
	<path d="M1518,436.5l-69.5-1.5c2.8,10.3,5.2,19.6,6.8,25.8l67.9,1.5L1518,436.5z"/>
</a>
<a id="_x33_6">
	<path d="M1526.9,479.9l-3.6-17.6l-67.9-1.5c1.3,5,2.1,8,2.1,8l2.6,14l66.9,1.5L1526.9,479.9z"/>
</a>
<a id="_x33_5">
	<polygon points="1526.9,484.3 1460.1,482.8 1465.1,510 1527,511.4 	"/>
</a>
<a id="_x33_4">
	<polygon points="1527,511.4 1465.1,510 1470,537.2 1527.3,539.2 	"/>
</a>
<a id="_x33_3">
	<polygon points="1527.3,539.2 1470,537.2 1475.6,567 1527.5,566.8 	"/>
</a>
<a id="_x33_2">
	<path d="M1347.5,424.5c0,0-27.5,7.2-35,23.4c-7.5,16.3-35,3.9-35,3.9s-2.4-19.8-4.9-43.5l73.9-1.2L1347.5,424.5z"/>
</a>
<a id="_x33_1">
	<polygon points="1208.6,590.4 1209.4,599.9 1211.9,630 1212.5,636.2 1152.5,615.8 1151.1,592.8 	"/>
</a>
<a id="_x33_0">
	<path d="M1072.5,322.9c13.8-23.4-1.3-56.7-1.3-56.7s-10.6,1.7-27.2,6.4l10.2,56.1C1065,325,1072.5,322.9,1072.5,322.9z"/>
</a>
<a id="_x32_9">
	<path d="M51.2,487.5l77.4-7.4c0.8-4,1.4-6.2,1.4-6.2l0.4-14.1l-0.6-6.5l-79,7.6L51.2,487.5z"/>
</a>
<a id="_x32_8">
	<path d="M230.9,513.7l2.6,16.4l-74.4,6.1l1.9-35.7l30-3C191,497.5,222,517.1,230.9,513.7z"/>
</a>
<a id="_x32_7">
	<polygon points="238.8,550.9 162.4,568.7 159.2,536.2 233.5,530.1 	"/>
</a>
<a id="_x32_6">
	<path d="M244.2,573.9l-2.1-8.3l-3.3-14.8l-76.4,17.8l4.7,8.8c0,0,22,8.5,21,12.3L244.2,573.9z"/>
</a>
<a id="_x32_5">
	<path d="M244.2,573.9l5,26.3l3.9,24.5c0,0-42.8-0.1-55.5-13.5l-9.4-21.4L244.2,573.9z"/>
</a>
<a id="_x32_4">
	<polygon points="253.1,624.7 307.9,622.8 310.5,616.8 297.5,584.1 249.1,600.1 	"/>
</a>
<a id="_x32_3">
	<polygon points="297.5,584.1 294.9,550.9 242.1,565.7 244.2,573.9 249.1,600.1 	"/>
</a>
<a id="_x32_2">
	<polygon points="294.9,550.9 242.1,565.7 238.8,550.9 235.1,536.2 293.4,518.6 	"/>
</a>
<a id="_x32_1">
	<path d="M293.4,518.6l1.5-28.9l-24.8,2c0,0-12.7,10.5-26.8,18.1l-12.4,3.7l2.6,16.4l1.5,6.1L293.4,518.6z"/>
</a>
<a id="_x32_0">
	<polygon points="623.5,524.4 617.4,496.5 566.7,508.6 569.7,523.9 572.2,536.2 	"/>
</a>
<a id="_x31_9">
	<polygon points="561.1,480.5 565,500.4 566.7,508.6 617.4,496.5 613.9,468.3 	"/>
</a>
<a id="_x31_8">
	<path d="M732.1,491.6c0,0-33.8,49.9-52.4,52.6c0,0-4.9,5.8-11.6-2.2c-3.4-4.2-9.1-19.9-13.5-38.6l76.1-18.3L732.1,491.6z"/>
</a>
<a id="_x31_7">
	<path d="M720.3,435.1l0.5,2.3l5.3,25.3l4.7,22.2l1.4,6.5c0,0,37.1-47.8,40.5-57.2c3.4-9.4,4.6-12.1,4.6-12.1L720.3,435.1z"/>
</a>
<a id="_x31_6">
	<polygon points="1366.2,578 1363.3,555.1 1300.8,557.2 1303.6,581.8 1366.5,579.7 	"/>
</a>
<a id="_x31_5">
	<path d="M1484.3,213.5c0,0-43.9,4.6-51.7,10.4c-3.1,2.3-4.4,11.9-5,22.8l82.8,1.8C1511.5,220.8,1505.7,213.5,1484.3,213.5z"/>
</a>
<a id="_x31_4">
	<path d="M1507.9,293.9l-80.3-1.8c-0.4,6.2-0.7,15.2-0.9,25l82.5,1.8C1508.4,312.9,1507.8,304.6,1507.9,293.9z"/>
</a>
<a id="_x31_3">
	<path d="M388.4,480.9l-1.6-8.9l-55.2,12.4c0,1.2-0.1,1.8-0.1,1.8c-1.7,8.4-2.6,17-3,25.3l62.9-14.1L388.4,480.9z"/>
</a>
<a id="_x31_2">
	<path d="M1471.9,653.1v9.1H1377l-3.7-28.9l-0.4-3.5l63.3,0.7C1443.4,649.6,1471.9,653.1,1471.9,653.1z"/>
</a>
<a id="_x31_1">
	<path d="M1436.1,630.4l-63.3-0.7l-3.2-25l-0.6-4.3l70.5,0.7C1433.6,613.6,1433.4,623.2,1436.1,630.4z"/>
</a>
<a id="_x31_0">
	<path d="M1273,572.4c-0.2,2-0.4,4-0.9,5.8c0,0-3.4,14.5-4.7,20.3l-58.1,1.4l-0.8-9.5l-2-24.8l-1.3-15.4l65.7-1.6
		C1272.5,556.5,1273.6,564.9,1273,572.4z"/>
</a>
<a id="_x30_">
	<path d="M1099.7,555.4l-4.9-46.3c-14.4-2-26.2,7.2-26.2,7.2l-20.3,8.4c-2,0.3-4.1,0.4-6,0.6l2.5,32.5L1099.7,555.4z"/>
</a>
<a id="_x39_">
	<path d="M449.3,373l-77.2,17.4L368,368l-0.4-2.3l73.4-16.5c2.5,5.5,3.8,9.5,3.8,9.5S446.9,364.1,449.3,373z"/>
</a>
<a id="_x38_">
	<path d="M525.5,301.3l-49.4,11.1c-3.6-6.7-10.8-12.1-24.2-12.5l-2.6-6.6l71.5-15.9L525.5,301.3z"/>
</a>
<a id="_x37_">
	<path d="M477.7,340.9c1.2-4.8,3.9-18.3-1.6-28.5l49.4-11.1l1.2,6.4L531,329L477.7,340.9z"/>
</a>
<a id="_x36_">
	<polygon points="1403.8,406.3 1346.4,407.2 1344.9,384.7 1353,384.5 1399.6,383.6 	"/>
</a>
<a id="_x35_">
	<path d="M1359.8,527.1l-1.8-14c-9.8,4.8-32-11.1-32-11.1c-14.4-13.6-32.1-5.2-32.1-5.2l4.2,35.9l62.1-3.2L1359.8,527.1z"/>
</a>
<a id="_x34_">
	<path d="M1214.6,662.2l-81.9,1.2l-3.6-34.3c8.7,0.2,10.2-0.8,10.2-0.8s9.7-2.5,13.2-12.6l41.4,13.7l18.5,6.1l0.1,0.6L1214.6,662.2z
		"/>
</a>
<a id="_x33_">
	<path d="M53.2,675.4h103v-19.9c-16.1-3.4-25.2-9.6-29.7-17l-73.6,10.2L53.2,675.4z"/>
</a>
<a id="_x32_">
	<path d="M52.6,621.1l72.1-10c3.8-12.6,11.6-22.8,11.6-22.8c-0.7-2-1.5-4.1-2.2-6.1l-81.8,11.3L52.6,621.1z"/>
</a>
<a id="_x31_">
	<path d="M574.6,548.2l-76,17.4c-0.2-0.6-0.4-1.1-0.6-1.7c-1.9-5.2-4.2-12.8-6.2-22.5l77.9-17.6l0.3,1.5l2.2,10.8L574.6,548.2z"/>
</a>
</svg>
