<svg width="215" height="41" viewBox="0 0 215 41" fill="none" xmlns="http://www.w3.org/2000/svg">
<path d="M199.802 40.2228H189.504V24.9206C189.504 11.173 200.677 0 214.425 0V10.2986C206.361 10.2986 199.851 16.8566 199.851 24.872V40.2228H199.802Z" fill="#396DFA"/>
<path d="M66.2119 41C54.8932 41 45.7119 31.8187 45.7119 20.5C45.7119 9.18128 54.8932 0 66.2119 0C77.5306 0 86.7119 9.18128 86.7119 20.5C86.7119 31.8187 77.5306 41 66.2119 41ZM66.2119 10.3472C60.5768 10.3472 56.0105 14.9135 56.0105 20.5486C56.0105 26.1836 60.5768 30.75 66.2119 30.75C71.847 30.75 76.4133 26.1836 76.4133 20.5486C76.4133 14.9135 71.847 10.3472 66.2119 10.3472Z" fill="#396DFA"/>
<path d="M142.286 40.1742V0.825823H131.987V14.0877C124.652 5.92653 114.062 0.777245 102.257 0.777245H93.0762V40.1742H103.423V11.173C119.066 11.7559 131.647 24.532 131.987 40.2227L142.286 40.1742Z" fill="#396DFA"/>
<path d="M165.457 40.1742H148.649V0.874397H165.457C176.29 0.874397 185.132 9.71563 185.132 20.5486C185.132 31.3815 176.29 40.1742 165.457 40.1742ZM158.948 29.8756H165.457C170.607 29.8756 174.784 25.6979 174.784 20.5486C174.784 15.3993 170.607 11.2216 165.457 11.2216H158.948V29.8756Z" fill="#396DFA"/>
<path d="M19.6742 41C8.84123 41 0 32.1588 0 21.3258V0.825844H10.2986V21.3744C10.2986 26.5237 14.4763 30.7014 19.6256 30.7014C24.7749 30.7014 28.9526 26.5237 28.9526 21.3744V0.825844H39.2512V21.3744C39.3483 32.2074 30.5557 41 19.6742 41Z" fill="#396DFA"/>
</svg>
