<svg width="16" height="14" viewBox="0 0 16 14" fill="none" xmlns="http://www.w3.org/2000/svg">
<path d="M14.717 6.11665L9.71699 1.11665C9.23366 0.633317 8.43366 0.633317 7.95033 1.11665C7.46699 1.59998 7.46699 2.39998 7.95033 2.88332L10.817 5.74998H2.16699C1.48366 5.74998 0.916992 6.31665 0.916992 6.99998C0.916992 7.68332 1.48366 8.24998 2.16699 8.24998H10.817L7.95033 11.1167C7.46699 11.6 7.46699 12.4 7.95033 12.8833C8.20033 13.1333 8.51699 13.25 8.83366 13.25C9.15033 13.25 9.46699 13.1333 9.71699 12.8833L14.717 7.88332C15.2003 7.39998 15.2003 6.59998 14.717 6.11665Z" fill="#386EFA"/>
</svg>
