<svg width="172" height="26" viewBox="0 0 172 26" fill="none" xmlns="http://www.w3.org/2000/svg">
<g clip-path="url(#clip0_24_2)">
<path d="M8.42709 0H9.15413L14.5665 22.1354C15.1114 24.3376 15.5479 24.9151 17.4368 24.9151V25.6378H10.7165V24.9151H10.8987C12.6432 24.9151 12.9337 24.3376 12.461 22.5676L11.4126 18.3408C11.239 17.642 10.6082 17.1517 9.8846 17.1517H6.39723C5.6702 17.1517 5.03769 17.6471 4.86754 18.3493L3.9944 21.9543C3.41346 23.8678 3.77612 24.9151 5.81114 24.9151H5.99332V25.6378H0V24.9151C1.9972 24.9151 2.61596 23.9037 3.0869 21.8449L8.42709 0ZM6.60864 11.2044L5.84895 14.3173C5.60832 15.3014 6.35942 16.2496 7.37693 16.2496H8.89803C9.91726 16.2496 10.6666 15.3014 10.426 14.3173L9.66632 11.2044C9.27616 9.61204 6.99708 9.61204 6.60864 11.2044Z" fill="white"/>
<path d="M45.9511 22.5693C45.9511 24.447 46.3877 24.9168 48.3127 24.9168H48.4949V25.6395H41.2297V24.9168H41.4119C43.3369 24.9168 43.7734 24.447 43.7734 22.5693V15.2655C43.7734 14.1139 42.835 13.1811 41.6766 13.1811H37.8798C36.7214 13.1811 35.7829 14.1139 35.7829 15.2655V22.5693C35.7829 24.447 36.2195 24.9168 38.1445 24.9168H38.3267V25.6395H31.0615V24.9168H31.2437C33.1687 24.9168 33.6052 24.447 33.6052 22.5693V3.43068C33.6052 1.55303 33.1687 1.08319 31.2437 1.08319H31.0615V0.360495H38.3267V1.08319H38.1445C36.2195 1.08319 35.7829 1.55303 35.7829 3.43068V10.1929C35.7829 11.3445 36.7214 12.2773 37.8798 12.2773H41.6766C42.835 12.2773 43.7734 11.3445 43.7734 10.1929V3.43068C43.7734 1.55303 43.3369 1.08319 41.4119 1.08319H41.2297V0.360495H48.4949V1.08319H48.3127C46.3877 1.08319 45.9511 1.55303 45.9511 3.43068V22.5693Z" fill="white"/>
<path d="M70.5432 0H71.2702L76.6826 22.1354C77.2274 24.3376 77.664 24.9151 79.5529 24.9151V25.6378H72.8326V24.9151H73.0147C74.7593 24.9151 75.0498 24.3376 74.5771 22.5676L73.6249 18.7389C73.3946 17.8077 72.5541 17.1534 71.5882 17.1534H68.9258C67.9564 17.1534 67.1142 17.8129 66.8874 18.7508L66.1105 21.956C65.5295 23.8695 65.8922 24.9168 67.9272 24.9168H68.1094V25.6395H62.1161V24.9168C64.1133 24.9168 64.732 23.9054 65.203 21.8466L70.5432 0ZM68.2142 13.2922L68.1214 13.6732C67.8017 14.9853 68.8003 16.2496 70.1599 16.2496H70.3472C71.7051 16.2496 72.7054 14.9853 72.3857 13.6732L72.2929 13.2922C71.7721 11.1685 68.7333 11.1685 68.2142 13.2922Z" fill="white"/>
<path d="M105.271 26H104.544L102.877 15.8566C102.686 14.6931 101.003 14.6897 100.807 15.8515L99.0935 26H98.3665L94.7365 3.86463C94.5543 2.67381 94.3377 1.91523 94.1194 1.59062C93.9372 1.266 93.5024 1.0849 92.8115 1.0849V0.362202H97.9334V1.0849C96.5171 1.0849 96.3349 1.55474 96.6254 3.43238L98.2049 13.41C98.3906 14.5769 100.077 14.5872 100.274 13.422L101.355 7.06637C101.374 6.95532 101.374 6.84426 101.357 6.73321L100.91 3.86634C100.584 1.66408 100.257 1.08661 98.9852 1.08661V0.36391H104.107V1.08661C102.691 1.08661 102.509 1.55645 102.799 3.43409L104.267 12.7181C104.453 13.8918 106.154 13.8918 106.34 12.7181L107.705 4.04915C108.141 1.88277 107.923 1.08832 106.07 1.08832V0.365619H110.974V1.08832C110.102 1.08832 109.52 1.3053 109.267 1.70167C109.013 2.09804 108.794 2.93008 108.612 4.15679L105.271 26Z" fill="white"/>
<path d="M139.974 24.0233C139.754 24.9681 138.907 25.6378 137.931 25.6378H124.777V24.9151H124.959C126.884 24.9151 127.321 24.4453 127.321 22.5676V3.43067C127.321 1.55303 126.886 1.08319 124.959 1.08319H124.777V0.360495H137.568C138.544 0.360495 139.392 1.03023 139.612 1.97503L140.579 6.13694L139.852 6.31805C138.835 2.95913 136.91 1.26258 134.039 1.26258H131.86C129.935 1.26258 129.498 1.73242 129.498 3.42897V10.1912C129.498 11.3428 130.437 12.2756 131.595 12.2756H132.041C133.966 12.2756 135.127 11.734 135.127 9.74701V9.56591H135.854V15.8857H135.127V15.7046C135.127 13.7176 133.966 13.176 132.041 13.176H131.595C130.437 13.176 129.498 14.1088 129.498 15.2604V22.5642C129.498 24.2607 129.933 24.7306 131.86 24.7306H134.404C137.274 24.7306 139.199 23.034 140.217 19.6751L140.942 19.8562L139.974 24.0233Z" fill="white"/>
<path d="M171.22 23.2169C170.89 24.6349 169.62 25.6395 168.155 25.6395H156.38V24.9168H156.562C158.487 24.9168 158.924 24.447 158.924 22.5693V3.43068C158.924 1.55303 158.487 1.08319 156.562 1.08319H156.38V0.360495H163.645V1.08319H163.463C161.538 1.08319 161.101 1.55303 161.101 3.43068V22.5693C161.101 24.2659 161.538 24.7357 163.463 24.7357H165.46C168.33 24.7357 170.255 23.0392 171.273 19.6803L172 19.8614L171.22 23.2169Z" fill="white"/>
</g>
<defs>
<clipPath id="clip0_24_2">
<rect width="172" height="26" fill="white"/>
</clipPath>
</defs>
</svg>
