<svg width="138" height="34" viewBox="0 0 138 34" fill="none" xmlns="http://www.w3.org/2000/svg">
<path d="M19.5858 22.905L19.3476 24.023C19.2584 24.4425 19.1064 24.8473 18.8989 25.2229L18.6373 25.6964C18.2208 26.449 17.5895 27.0628 16.8251 27.4574L16.5533 27.5977C16.0286 27.8681 15.4528 28.0303 14.8639 28.0712L13.4229 28.1735C13.3367 28.1794 13.249 28.1882 13.1627 28.1999L11.3359 28.4395C11.1708 28.4614 11.0042 28.4731 10.8376 28.4761L9.17592 28.5024C8.98155 28.5053 8.78716 28.4951 8.59425 28.4731L7.09773 28.2948C6.81859 28.2612 6.53653 28.2554 6.2574 28.2773L4.54312 28.4059L4.60304 30.3716C4.60743 30.5016 4.6045 30.6302 4.59719 30.7603L4.47736 32.799L2.70316 32.6923C2.45472 32.6777 2.20481 32.6836 1.95637 32.7113L0.0360209 32.9276L0.147092 30.6931C0.155861 30.506 0.15293 30.3175 0.138315 30.1304L0.0140956 28.574C-0.0151334 28.2115 0.00093755 27.8476 0.0637798 27.4881L0.281534 26.2196C0.347299 25.8381 0.361919 25.4494 0.323922 25.065L0.193851 23.7132C0.164622 23.4136 0.167552 23.1111 0.201165 22.8115L0.363384 21.3617C0.39992 21.0417 0.39992 20.7172 0.363384 20.3972L0.167555 18.6361C0.157325 18.5411 0.150014 18.4461 0.145629 18.3512L0.0389466 15.9763L1.92566 15.9018C2.21941 15.8901 2.51463 15.9091 2.80546 15.9573L3.6531 16.0976C4.2523 16.197 4.85734 16.2598 5.4653 16.2861L5.74296 16.2978C6.40646 16.3271 7.06997 16.311 7.73201 16.2525L8.92454 16.1458L10.896 15.9266C11.0392 15.9105 11.1825 15.9018 11.3257 15.9003L12.7214 15.8842C13.1028 15.8798 13.4843 15.9252 13.854 16.0201L15.1357 16.349C15.539 16.4527 15.9249 16.6135 16.2815 16.8254L17.2153 17.3822C17.6406 17.6365 18.0206 17.9595 18.3363 18.3409L18.6286 18.6917C19.1795 19.3552 19.52 20.1677 19.6092 21.0256L19.6632 21.5517C19.71 22.0048 19.6852 22.4607 19.5902 22.905H19.5858ZM15.0948 21.6409L14.9837 21.372C14.6607 20.593 13.9329 20.0581 13.0926 19.9821L12.0988 19.893L9.55735 19.7585L7.41194 19.5846C7.14742 19.5627 6.87998 19.5656 6.61546 19.5934L4.56505 19.8024L4.6308 21.9551C4.63665 22.1319 4.63081 22.3088 4.61473 22.4841L4.40429 24.8005L7.01004 24.6368L9.40975 24.6018C9.50474 24.6018 9.60119 24.6018 9.69619 24.6076L11.7027 24.7099C11.9643 24.7231 12.2274 24.7128 12.4861 24.6792L13.0575 24.6047C13.9417 24.4892 14.6929 23.9003 15.0144 23.0672L15.1065 22.829C15.2541 22.4447 15.2497 22.0194 15.0919 21.6379L15.0948 21.6409Z" fill="#833921"/>
<path d="M36.8455 32.9466L34.5291 32.8575L32.4393 32.745V30.6668C32.4378 30.4972 32.432 30.3277 32.4203 30.1582L32.2756 28.0289L32.1996 26.3847C32.1777 25.8937 32.2025 25.4012 32.2756 24.9145L32.3735 24.2569C32.4714 23.5963 32.4831 22.9269 32.4071 22.2634L32.3618 21.8747C32.2858 21.2141 32.296 20.5462 32.394 19.8871L32.4787 19.3142C32.5606 18.7677 32.581 18.2152 32.5416 17.6643L32.4349 16.1531L33.9621 16.2715C34.3406 16.3007 34.7206 16.3022 35.0991 16.2744L36.6132 16.1648L36.6512 18.4915L36.6716 20.5287C36.6745 20.7596 36.6658 20.9891 36.6468 21.2185L36.5547 22.3643C36.5065 22.9576 36.5284 23.5539 36.6205 24.1429L36.6599 24.3957C36.7885 25.2214 36.7798 26.0618 36.6336 26.8845L36.6058 27.0438C36.4904 27.6956 36.4612 28.3591 36.5182 29.0183L36.638 30.411L36.8455 32.9481V32.9466Z" fill="#833921"/>
<path d="M65.9678 29.068L63.951 29.2126C63.571 29.2404 63.1896 29.239 62.8111 29.2112L61.639 29.122C61.1377 29.084 60.6335 29.0957 60.1352 29.1557L58.9894 29.293C58.589 29.3413 58.1856 29.3573 57.7822 29.3427L55.9072 29.2726L55.0186 30.6975C54.9134 30.8655 54.8155 31.0365 54.7249 31.2134L54 32.6032L51.9745 32.78C51.821 32.7932 51.6675 32.802 51.5126 32.8063L49.2635 32.8677L50.0439 31.6825C50.4311 31.0935 50.7366 30.4549 50.9514 29.7841L50.9602 29.7548C51.2203 28.9437 51.612 28.1809 52.1191 27.4984C52.5503 26.9167 52.8995 26.2781 53.1538 25.6L53.4417 24.8312C53.547 24.5506 53.6683 24.2759 53.8056 24.0099L54.6737 22.3219L55.8151 20.2701L57.0018 18.2401L58.0848 16.2438L58.9236 16.0786C59.5842 15.9486 60.2594 15.9062 60.9316 15.95L61.5031 15.988C61.7355 16.0041 61.9664 16.0085 62.1987 16.0026L63.8809 15.9632L64.8454 18.1977L65.7968 20.3475L66.7234 22.2006C66.8052 22.3658 66.8929 22.5265 66.9879 22.6844L68.046 24.4703L68.7957 25.6233C69.1523 26.1714 69.4387 26.7618 69.6463 27.3815L69.7909 27.8111C69.9897 28.4015 70.2586 28.9657 70.5918 29.4918L71.3532 30.6916L72.4405 32.8063L70.6386 32.6412C70.2411 32.6047 69.8406 32.5988 69.4417 32.6237L67.6982 32.7347L66.9996 31.4852C66.8286 31.1798 66.6795 30.8626 66.5509 30.5382L65.9707 29.0636L65.9678 29.068ZM64.4552 26.1363L63.3752 24.2145C63.2188 23.9368 63.0814 23.6518 62.9601 23.3566L62.4311 22.0676C62.2645 21.6614 62.0628 21.2697 61.8304 20.897L60.8951 19.4005L59.9057 21.3238C59.8283 21.4743 59.7464 21.6204 59.6602 21.7651L58.6503 23.4502C58.5422 23.6314 58.4414 23.8155 58.3478 24.0055L57.2927 26.1436L59.7508 26.0398L61.4227 25.9405C61.8202 25.9171 62.2177 25.9229 62.6138 25.9609L64.4567 26.1348L64.4552 26.1363Z" fill="#833921"/>
<path d="M100.991 27.8345L101.916 29.0709C102.079 29.2872 102.219 29.521 102.336 29.7651L102.877 30.905C102.958 31.0789 103.053 31.247 103.16 31.4077L104.097 32.8224L101.709 32.8838C101.595 32.8867 101.482 32.8838 101.37 32.878L99.0403 32.7435L97.7528 30.8261C97.652 30.677 97.5628 30.5207 97.4825 30.3599L96.4083 28.1882L94.4149 28.4001C94.1504 28.4279 93.8829 28.4308 93.6169 28.4059L92.0064 28.2598C91.8106 28.2423 91.6118 28.2379 91.416 28.2496L89.4284 28.3577L89.4416 30.5645L89.5132 32.897L87.549 32.9803C87.3561 32.989 87.1646 32.9832 86.9732 32.9642L85.1318 32.78L85.0587 30.5586C85.0558 30.4607 85.0558 30.3628 85.0587 30.2649L85.1405 28.1809C85.1449 28.08 85.1449 27.9777 85.1405 27.8769L85.0616 25.6453L84.952 23.2616L84.9272 21.1469C84.9257 20.9686 84.9345 20.7889 84.9564 20.6106L85.1814 18.7399C85.2019 18.5748 85.2107 18.4096 85.2107 18.2445L85.2063 16.1926L87.2976 16.1429L89.2676 16.1195C89.4109 16.1181 89.5541 16.1079 89.6959 16.0918L91.0696 15.9296C91.4657 15.8828 91.8661 15.8945 92.2592 15.9646L93.158 16.1239C93.6169 16.2058 94.086 16.2072 94.5449 16.1312L95.7112 15.9354C95.9289 15.8989 96.1482 15.8799 96.3688 15.8799L97.8624 15.874C98.1036 15.874 98.3433 15.893 98.58 15.9354L99.7141 16.1327C100.385 16.2496 101.015 16.5331 101.548 16.9555L102.279 17.5357C102.554 17.7534 102.799 18.0077 103.01 18.2883L103.657 19.155C103.98 19.5861 104.214 20.0786 104.345 20.6003L104.568 21.4801C104.693 21.9785 104.722 22.4958 104.657 23.0044L104.589 23.5232C104.493 24.2554 104.201 24.9482 103.742 25.5269L103.343 26.0296C103.08 26.3614 102.766 26.6507 102.413 26.886L100.993 27.8345H100.991ZM89.4065 24.7348L91.6367 24.5857C91.8442 24.5726 92.0517 24.574 92.2592 24.5916L94.2468 24.7625C94.4105 24.7772 94.5742 24.7801 94.7393 24.7757L96.7006 24.707C96.9242 24.6997 97.1478 24.6734 97.367 24.6281L98.5961 24.3796C99.0535 24.2876 99.4466 23.9938 99.6659 23.5817L99.9991 22.9562C100.24 22.5031 100.243 21.9624 100.009 21.5064L99.6454 20.7991C99.4481 20.4177 99.1032 20.1327 98.6911 20.0143L97.8142 19.76C97.3027 19.6124 96.7663 19.5656 96.2358 19.6226L94.8855 19.7702C94.6268 19.798 94.3666 19.8024 94.1065 19.7805L92.2198 19.6256C92.0415 19.6109 91.8632 19.608 91.6849 19.6168L89.4313 19.7279L89.4445 22.2196L89.4109 24.7333L89.4065 24.7348Z" fill="#833921"/>
<path d="M117.276 24.042L117.159 23.1491C117.076 22.509 117.156 21.8586 117.393 21.2594L117.671 20.5579C117.799 20.2335 117.972 19.9295 118.184 19.6519L118.821 18.8174C119.087 18.4695 119.411 18.1699 119.78 17.9332L120.547 17.4378C120.905 17.2069 121.301 17.0373 121.715 16.9379L123.227 16.574L125.367 16.1093L127.119 15.798C127.417 15.7454 127.72 15.7279 128.022 15.7469L129.454 15.8375C129.678 15.8521 129.902 15.8857 130.119 15.9398L131.951 16.3899L133.241 16.7523C133.801 16.9102 134.317 17.1937 134.749 17.5824L135.631 18.3745C135.702 18.4388 135.772 18.5075 135.84 18.5777L136.645 19.4209C137.054 19.8491 137.357 20.368 137.529 20.9365L137.776 21.749C137.869 22.0559 137.924 22.3716 137.937 22.6917L137.997 24.1239C138.005 24.3241 137.997 24.5243 137.975 24.7231L137.777 26.4198C137.763 26.5484 137.741 26.677 137.713 26.8042L137.444 28.0128C137.33 28.5243 137.112 29.0066 136.803 29.4289L136.461 29.8966C136.12 30.3613 135.679 30.7428 135.17 31.0102L134.219 31.5115C134.058 31.5963 133.891 31.6693 133.72 31.7307L132.123 32.2992C131.992 32.346 131.859 32.3854 131.723 32.4176L129.981 32.8283C129.846 32.8604 129.712 32.8838 129.574 32.9013L128.147 33.0782C127.762 33.1264 127.372 33.1147 126.991 33.0431L125.365 32.742L123.628 32.4687C123.341 32.4234 123.061 32.346 122.792 32.2364L121.414 31.6781C121.257 31.6153 121.107 31.5422 120.961 31.4589L119.978 30.8992C119.521 30.6376 119.122 30.2853 118.809 29.8615L118.273 29.1366C118.076 28.8692 117.913 28.5769 117.791 28.2671L117.474 27.4618C117.266 26.9328 117.18 26.3643 117.221 25.7972L117.292 24.8122C117.311 24.555 117.304 24.2978 117.27 24.042H117.276ZM133.605 23.3654L133.352 22.7092C133.238 22.4125 133.086 22.1305 132.901 21.8703L132.597 21.4436C132.164 20.8371 131.562 20.3709 130.866 20.1049L130.298 19.8871C129.995 19.7717 129.678 19.6942 129.355 19.6592L127.726 19.4794C127.622 19.4677 127.517 19.4604 127.411 19.4575L126.041 19.4209C125.513 19.4063 124.988 19.5028 124.499 19.7045L124.193 19.8301C123.457 20.1327 122.834 20.6588 122.415 21.3354L122.254 21.5941C121.995 22.0092 121.82 22.4695 121.737 22.9518L121.566 23.9441C121.51 24.2642 121.497 24.5886 121.523 24.9116L121.567 25.4246C121.637 26.2561 121.981 27.0395 122.542 27.6562L122.726 27.8579C123.033 28.1955 123.398 28.4731 123.805 28.6807L124.354 28.9613C124.939 29.2594 125.59 29.4012 126.247 29.3719L127.569 29.3135L129.361 29.2185C129.687 29.2009 130.008 29.1425 130.318 29.0431L130.985 28.8297C131.667 28.6105 132.274 28.2028 132.734 27.6533L132.912 27.4399C133.305 26.9693 133.58 26.411 133.71 25.8119L133.77 25.5342C133.928 24.8093 133.87 24.0552 133.604 23.3639L133.605 23.3654ZM132.021 9.6044L132.398 12.387L129.9 12.8327L127.574 13.2668L125.24 13.6701L123.094 13.98L123.036 11.4195L124.984 10.7896C125.134 10.7414 125.288 10.7019 125.443 10.6727L127.435 10.2942C127.501 10.2811 127.568 10.2708 127.634 10.2621L129.884 9.95807L132.019 9.6044H132.021Z" fill="#833921"/>
<path d="M28.1907 0.990631V7.76882H26.4472V5.1163H20.9288V7.76882H19.1853V0.990631H20.9288V3.64316H26.4472V0.990631H28.1907Z" fill="#833921"/>
<path d="M40.0519 6.32491H35.9949L35.2686 7.76736H33.3512L36.8469 0.989166H39.1999L42.7044 7.76736H40.7782L40.0519 6.32491ZM39.403 5.02714L38.0278 2.2767L36.6438 5.02714H39.403Z" fill="#833921"/>
<path d="M52.027 0.8927C54.7278 0.8927 56.084 1.91864 56.2579 3.87552H54.4866C54.3215 2.78089 53.4797 2.35561 52.027 2.35561C50.2557 2.35561 49.5089 2.98549 49.5089 4.36948C49.5089 5.75347 50.2645 6.40236 52.027 6.40236C53.4694 6.40236 54.3215 5.96685 54.4866 4.86345H56.2579C56.084 6.8291 54.7278 7.86527 52.027 7.86527C49.0442 7.86527 47.7669 6.62596 47.7669 4.36948C47.7669 2.11301 49.0456 0.8927 52.027 0.8927Z" fill="#833921"/>
<path d="M63.1617 7.76736H61.4182V0.989166H63.1617V7.76736Z" fill="#833921"/>
<path d="M70.1621 2.37462V3.74984H75.584V5.00815H70.1621V6.38337H75.584V7.76736H68.4186V0.989166H75.584V2.37316H70.1621V2.37462Z" fill="#833921"/>
<path d="M89.478 0.990631V7.76882H87.1061L82.4879 2.68591V7.76882H80.7444V0.990631H83.1075L87.7359 6.08378V0.990631H89.4795H89.478Z" fill="#833921"/>
<path d="M102.945 4.37826C102.945 6.68296 101.406 7.76736 99.6526 7.76736H94.7334V0.989166H99.6526C101.405 0.989166 102.945 2.07356 102.945 4.37826ZM101.202 4.37826C101.202 2.73267 100.31 2.45207 98.9935 2.45207H96.4754V6.30591H98.9935C100.31 6.30591 101.202 6.02531 101.202 4.37972V4.37826Z" fill="#833921"/>
<path d="M114.708 6.32491H110.651L109.925 7.76736H108.008L111.503 0.989166H113.856L117.361 7.76736H115.435L114.708 6.32491ZM114.06 5.02714L112.684 2.2767L111.3 5.02714H114.06Z" fill="#833921"/>
</svg>
