<svg width="217" height="50" viewBox="0 0 217 50" fill="none" xmlns="http://www.w3.org/2000/svg">
<g clip-path="url(#clip0_2009_981)">
<path d="M12.0865 16.0658C10.9779 16.6842 9.59751 16.9921 7.9504 16.9921H2.779V23.2605H0.62207V7.92105H8.19616C12.2433 7.92105 14.2643 9.45263 14.2643 12.5132C14.2669 14.0816 13.5401 15.2658 12.0865 16.0658ZM8.33211 9.88947H2.779V15.0263H8.35302C9.43279 15.0263 10.3086 14.8158 10.9832 14.3921C11.7178 13.9395 12.0839 13.3211 12.0839 12.5368C12.0865 10.7711 10.8341 9.88947 8.33211 9.88947Z" fill="#0E0A60"/>
<path d="M28.3825 23.2605L26.202 18.7342H18.6933L16.4684 23.2605H14.0396L21.6816 7.92105H23.3679L30.7407 23.2605H28.3825ZM22.5156 11.1105L19.6842 16.7658H25.2582L22.5156 11.1105Z" fill="#0E0A60"/>
<path d="M38.0925 23.4184C36.0532 23.4184 34.3904 23.071 33.1015 22.3789C31.4517 21.4737 30.6282 20.0553 30.6282 18.1263V17.1316H32.8086V18.0579C32.8086 20.3211 34.576 21.4526 38.1134 21.4526C39.4023 21.4526 40.4507 21.2711 41.2612 20.9105C42.2207 20.5026 42.6991 19.8921 42.6991 19.0789C42.6991 18.4895 42.5501 18.0605 42.2494 17.7895C41.9488 17.5184 41.418 17.2763 40.6546 17.0658C40.2049 16.9447 39.1487 16.7184 37.4859 16.3868C35.5224 15.9947 34.1812 15.6263 33.4622 15.2789C31.9197 14.5395 31.1458 13.4237 31.1458 11.9316C31.1458 9.15526 33.3185 7.76842 37.6637 7.76842C42.1893 7.76842 44.4822 9.63158 44.5423 13.3579H42.4298C42.3253 11.7605 41.8599 10.7474 41.0363 10.3263C40.3017 9.93421 39.1775 9.73684 37.6637 9.73684C34.7564 9.73684 33.3028 10.4684 33.3028 11.9316C33.3028 12.6263 33.6479 13.1447 34.3355 13.4921C34.9054 13.7632 35.9015 14.0211 37.3238 14.2605C40.1108 14.7289 41.9854 15.2342 42.9423 15.7763C44.2155 16.5 44.8534 17.6158 44.8534 19.1237C44.8534 20.6474 44.0508 21.7868 42.4481 22.5395C41.2403 23.1263 39.7866 23.4184 38.0925 23.4184Z" fill="#0E0A60"/>
<path d="M46.6785 23.2605V7.92105H59.288V9.88947H48.8119V14.3026H58.0958V16.2711H48.8119V21.2947H59.4004V23.2632H46.6785V23.2605Z" fill="#0E0A60"/>
<path d="M74.8335 21.3158C73.2831 22.7184 71.189 23.4211 68.551 23.4211C65.8973 23.4211 63.8031 22.7237 62.2684 21.3289C60.7311 19.9342 59.9651 18.0289 59.9651 15.6158C59.9651 13.2026 60.752 11.3158 62.326 9.96052C63.8397 8.64737 65.9156 7.9921 68.5536 7.9921C71.1916 7.9921 73.2727 8.64737 74.8021 9.96052C76.376 11.3184 77.163 13.2026 77.163 15.6158C77.1604 18.0132 76.3839 19.9132 74.8335 21.3158ZM73.3171 11.4158C72.1929 10.4421 70.6033 9.95526 68.551 9.95526C66.4986 9.95526 64.9169 10.4447 63.8083 11.4263C62.6998 12.4079 62.1456 13.8026 62.1456 15.6132C62.1456 17.4237 62.7077 18.8474 63.8319 19.8895C64.9561 20.9289 66.53 21.45 68.5536 21.45C70.6059 21.45 72.1955 20.9342 73.3197 19.9C74.444 18.8658 75.0061 17.4368 75.0061 15.6132C75.0008 13.7895 74.4413 12.3895 73.3171 11.4158Z" fill="#0E0A60"/>
<path d="M99.1663 16.0658C98.0578 16.6842 96.6773 16.9921 95.0302 16.9921H89.8588V23.2605H87.7019V7.92105H95.276C99.3232 7.92105 101.344 9.45263 101.344 12.5132C101.347 14.0816 100.62 15.2658 99.1663 16.0658ZM95.4119 9.88947H89.8588V15.0263H95.4329C96.5126 15.0263 97.3885 14.8158 98.063 14.3921C98.7977 13.9395 99.1637 13.3211 99.1637 12.5368C99.1663 10.7711 97.914 9.88947 95.4119 9.88947Z" fill="#0E0A60"/>
<path d="M102.785 23.2605V7.92105H115.394V9.88947H104.921V14.3026H114.205V16.2711H104.921V21.2947H115.507V23.2632H102.785V23.2605Z" fill="#0E0A60"/>
<path d="M129.039 23.2605L118.743 11.3605V23.2605H116.586V7.92105H118.519C119.823 9.48947 121.554 11.4947 123.711 13.9395C126.317 16.8816 128.027 18.8184 128.835 19.7553V7.92105H130.992V23.2605H129.039Z" fill="#0E0A60"/>
<path d="M149.584 23.2605L139.288 11.3605V23.2605H137.131V7.92105H139.063C140.368 9.48947 142.098 11.4947 144.255 13.9395C146.862 16.8816 148.572 18.8184 149.38 19.7553V7.92105H151.537V23.2605H149.584Z" fill="#0E0A60"/>
<path d="M160.509 23.4184C158.47 23.4184 156.807 23.071 155.518 22.3789C153.868 21.4737 153.045 20.0553 153.045 18.1263V17.1316H155.225V18.0579C155.225 20.3211 156.993 21.4526 160.53 21.4526C161.819 21.4526 162.867 21.2711 163.678 20.9105C164.637 20.5026 165.116 19.8921 165.116 19.0789C165.116 18.4895 164.967 18.0605 164.666 17.7895C164.366 17.5184 163.835 17.2763 163.071 17.0658C162.622 16.9447 161.565 16.7184 159.903 16.3868C157.939 15.9947 156.598 15.6263 155.879 15.2789C154.336 14.5395 153.563 13.4237 153.563 11.9316C153.563 9.15526 155.735 7.76842 160.08 7.76842C164.606 7.76842 166.899 9.63158 166.959 13.3579H164.847C164.742 11.7605 164.277 10.7474 163.453 10.3263C162.718 9.93421 161.594 9.73684 160.08 9.73684C157.173 9.73684 155.72 10.4684 155.72 11.9316C155.72 12.6263 156.065 13.1447 156.752 13.4921C157.322 13.7632 158.318 14.0211 159.743 14.2605C162.53 14.7289 164.405 15.2342 165.362 15.7763C166.635 16.5 167.273 17.6158 167.273 19.1237C167.273 20.6474 166.47 21.7868 164.867 22.5395C163.654 23.1263 162.201 23.4184 160.509 23.4184Z" fill="#0E0A60"/>
<path d="M181.234 22.0395C180.094 22.9605 178.387 23.4184 176.11 23.4184C171.435 23.4184 169.098 21.3974 169.098 17.3553V7.92105H171.255V17.3553C171.255 18.7421 171.642 19.7737 172.413 20.4447C173.184 21.1158 174.418 21.4526 176.11 21.4526C177.788 21.4526 179.025 21.1132 179.82 20.4342C180.583 19.8 180.965 18.7974 180.965 17.4263V7.92105H183.122V17.4C183.122 19.4816 182.492 21.0289 181.234 22.0395Z" fill="#0E0A60"/>
<path d="M185.143 23.2605V7.92105H187.3V21.2921H196.921V23.2605H185.143Z" fill="#0E0A60"/>
<path d="M210.297 23.2605L208.116 18.7342H200.607L198.382 23.2605H195.954L203.596 7.92105H205.282L212.655 23.2605H210.297ZM204.43 11.1105L201.598 16.7658H207.172L204.43 11.1105Z" fill="#0E0A60"/>
<path d="M132.995 23.2605V7.58158H135.152V23.2605H132.995ZM135.194 4.87368H133.282L135.267 0.0236816H138.195L135.194 4.87368Z" fill="#0E0A60"/>
<path d="M149.455 48.3263C148.716 47.5184 148.203 46.5316 147.913 45.4158C147.638 44.2842 147.495 42.9737 147.495 41.5184C147.495 40.1289 147.607 38.7211 147.816 37.2974C146.514 37.3947 144.731 37.7026 142.498 38.1711C139.96 42.6184 137.696 45.6895 135.703 47.3895L135.622 47.4053C135.526 47.4053 135.463 47.3395 135.445 47.2263C135.445 47.1947 135.445 47.1789 135.46 47.1605C135.476 47.1447 135.492 47.1289 135.507 47.1132C137.403 45.5132 139.588 42.5526 142.062 38.2684C140.198 38.6737 138.368 39.4316 136.55 40.5658C136.469 40.6316 136.391 40.6632 136.279 40.6632C136.213 40.6632 136.135 40.6316 136.038 40.5658C135.941 40.5184 135.894 40.4053 135.894 40.2579C135.894 40.0632 136.007 39.9026 136.232 39.7895C138.143 38.8184 140.185 38.1553 142.352 37.7684C142.383 37.7211 142.417 37.6711 142.433 37.6395C142.464 37.6079 142.48 37.5921 142.498 37.5737C142.498 37.5421 142.514 37.5263 142.514 37.5079C142.53 37.4763 142.561 37.3947 142.642 37.2816C143.542 35.7289 144.41 34.2263 145.262 32.7526C146.964 29.7289 148.603 26.9474 150.195 24.3763L150.355 24.2474C150.58 24.2474 150.692 24.3289 150.692 24.4895C150.452 26.0421 150.161 27.6921 149.824 29.4211C149.327 31.9105 148.909 34.3868 148.556 36.8605C149.761 36.7 150.886 36.4895 151.947 36.2132H152.075L152.107 36.3737C152.107 36.4395 152.075 36.4868 151.994 36.5526C150.917 36.8105 149.746 37.0368 148.491 37.1842C148.331 38.5105 148.25 39.8026 148.25 41.0816C148.25 41.7763 148.297 42.7632 148.394 44.0579C148.491 45.3342 148.94 46.7105 149.743 48.1658L149.774 48.2132C149.774 48.2605 149.774 48.2947 149.759 48.3263C149.743 48.3579 149.712 48.3737 149.693 48.3737C149.678 48.3895 149.678 48.3895 149.662 48.3895C149.646 48.3895 149.631 48.3895 149.615 48.3895C149.552 48.3921 149.503 48.3737 149.455 48.3263ZM144.956 37.3474C145.583 37.2658 146.258 37.1684 146.964 37.0737C147.254 37.0263 147.542 36.9921 147.848 36.9605C148.235 34.2921 148.7 31.7368 149.246 29.2789C149.615 27.5974 149.889 26.2553 150.049 25.2684C148.763 27.3711 147.351 29.7474 145.84 32.4158C144.909 34.0658 143.928 35.7474 142.917 37.4605L142.789 37.6868C143.607 37.5395 144.331 37.4263 144.956 37.3474Z" fill="#0E0A60"/>
<path d="M152.279 38.2684C151.869 37.9474 151.662 37.4632 151.662 36.8421C151.754 35.7842 152.12 34.9789 152.737 34.3816C153.354 33.8079 153.971 33.5079 154.541 33.5079C154.792 33.5079 154.975 33.5553 155.113 33.6684C155.249 33.7842 155.32 34.0368 155.32 34.4263C155.275 34.5421 155.181 34.5868 155.045 34.5868C154.93 34.5868 154.839 34.5184 154.818 34.3789L154.841 34.2868C154.841 34.15 154.773 34.0789 154.635 34.0789C154.292 34.0789 153.926 34.2868 153.56 34.6763C153.218 35.0684 152.943 35.6421 152.76 36.4474V36.4947C152.737 36.6789 152.716 36.8395 152.716 36.9763C152.716 37.8263 153.126 38.2658 153.973 38.2658C155.482 38.2658 157.377 37.8974 159.686 37.1395C161.971 36.3816 164.347 35.5053 166.771 34.4947C166.886 34.4947 166.978 34.5184 167.022 34.5632C167.066 34.6079 167.09 34.6789 167.09 34.8158L167.022 34.9079C166.931 34.9763 166.429 35.2079 165.49 35.5737C164.53 35.9421 163.364 36.3789 161.971 36.8842C160.554 37.3658 159.137 37.8053 157.675 38.1711C156.214 38.5632 154.98 38.7474 153.973 38.7474C153.262 38.7526 152.692 38.5895 152.279 38.2684Z" fill="#0E0A60"/>
<path d="M165.26 46.9395C165.26 45.6737 165.534 44.1342 166.104 42.2921C166.63 40.5895 167.474 38.7947 168.596 36.9342C168.23 37.1868 167.887 37.3263 167.568 37.3263C166.632 37.3263 166.128 36.8447 166.107 35.8763C166.107 35.3921 166.243 34.8868 166.541 34.3579C166.815 33.8289 167.202 33.3921 167.683 33C168.162 32.6079 168.711 32.4263 169.328 32.4263C169.945 32.4263 170.402 32.7026 170.677 33.2553L170.721 33.3474C170.721 33.6474 170.63 33.7842 170.447 33.7842C170.355 33.7842 170.287 33.7395 170.219 33.6474L170.175 33.5316C170.06 33.3237 169.764 33.2316 169.33 33.2316C168.964 33.2316 168.598 33.3921 168.256 33.7132C167.913 34.0342 167.615 34.4263 167.388 34.8632C167.16 35.3237 167.045 35.7368 167.045 36.0816C167.045 36.5421 167.252 36.7947 167.639 36.8395C167.822 36.8158 168.073 36.7 168.392 36.4711C168.87 36.1263 169.375 35.6211 169.9 34.9763L170.29 34.4947C170.449 34.3105 170.609 34.2184 170.748 34.2184C170.999 34.2421 171.137 34.3579 171.137 34.5868L171.114 34.7026C170.452 35.5526 169.88 36.3579 169.398 37.1632C169.513 37.5316 169.832 38.0132 170.381 38.5895C170.931 39.1868 171.683 39.4868 172.622 39.4868C173.992 39.4868 175.89 38.75 178.311 37.2789C179.294 36.6816 180.664 35.7605 182.379 34.4947C182.447 34.4947 182.494 34.4947 182.539 34.5184C182.562 34.5421 182.607 34.5632 182.654 34.5868C182.677 34.6105 182.698 34.6553 182.698 34.7237C182.698 34.8395 182.675 34.9079 182.607 34.9079C182.583 34.9316 182.217 35.2079 181.532 35.6895C180.847 36.1947 179.979 36.771 178.928 37.4158C176.209 39.0947 174.107 39.9474 172.622 39.9474C171.114 39.9474 169.995 39.5553 169.286 38.75C169.469 39.7632 169.561 40.8895 169.561 42.1079C169.561 44.2 169.286 46.0184 168.716 47.6053C168.146 49.1921 167.506 49.9737 166.75 49.9737C165.762 49.8605 165.26 48.85 165.26 46.9395ZM168.3 47.2605C168.826 45.7658 169.1 44.0868 169.1 42.1763C169.1 40.8184 168.962 39.5553 168.711 38.3342C167.866 39.9211 167.249 41.4632 166.815 42.9816C166.381 44.5237 166.175 45.8342 166.175 46.9368C166.175 47.5105 166.219 48.0868 166.334 48.6395C166.449 49.2158 166.585 49.4895 166.792 49.4895C167.27 49.4921 167.775 48.7579 168.3 47.2605Z" fill="#0E0A60"/>
<path d="M186.651 36.1289C186.651 35.6237 186.651 35.3474 186.675 35.3237C186.149 35.8526 185.577 36.3132 184.983 36.75C184.39 37.1868 183.796 37.4158 183.179 37.4158C182.152 37.4158 181.603 37.1395 181.488 36.6105L181.464 36.2421C181.464 35.4816 181.875 34.5632 182.722 33.4816C182.813 33.3211 182.973 33.229 183.224 33.229C183.613 33.229 183.817 33.3658 183.817 33.6211L183.749 33.7368C182.949 35.0026 182.539 35.9 182.539 36.4737C182.539 36.7737 182.745 36.9342 183.179 36.9342C183.613 36.9342 184.071 36.75 184.596 36.4053C185.556 35.7842 186.424 35.0026 187.224 34.0132L187.383 33.8053C187.475 33.6447 187.567 33.5289 187.658 33.4132C187.75 33.3211 187.977 33.2763 188.319 33.2763C188.594 33.3447 188.73 33.4842 188.73 33.6447L188.662 33.7816C188.16 34.5395 187.909 35.3447 187.909 36.2184C187.909 36.6553 188.068 37.0474 188.367 37.3921C188.665 37.7368 189.052 37.9211 189.577 37.9211C190.971 37.9211 193.12 37.3474 196.022 36.2184L200.111 34.4737C200.27 34.4737 200.362 34.5421 200.362 34.7026C200.362 34.8395 200.317 34.9105 200.247 34.9105C200.223 34.9342 199.813 35.1184 199.036 35.4632C194.673 37.4184 191.52 38.3842 189.577 38.3842C187.702 38.3842 186.719 37.6237 186.651 36.1289Z" fill="#0E0A60"/>
<path d="M216.655 34.5421C216.699 34.5658 216.723 34.5868 216.746 34.6342C216.77 34.6579 216.77 34.7026 216.77 34.7737L216.655 34.9105C212.404 37.2789 208.908 38.4763 206.166 38.4763C205.206 38.4763 204.43 38.2921 203.881 37.9C203.332 37.5316 203.013 37.0026 202.921 36.3132C202.83 36.4053 202.579 36.6342 202.145 37.05C201.253 37.8789 200.521 38.2921 199.951 38.2921C199.128 38.2921 198.694 37.8105 198.649 36.8421C198.649 36.3368 198.832 35.7842 199.198 35.1632C199.564 34.5421 200.043 34.0132 200.592 33.5526C201.164 33.0921 201.734 32.8632 202.351 32.8632C202.853 32.8632 203.196 33 203.402 33.3C203.609 33.6 203.721 33.9447 203.721 34.3132C203.721 34.4289 203.698 34.4737 203.63 34.4974C203.562 34.5211 203.491 34.5211 203.447 34.5211C203.423 34.5211 203.379 34.5211 203.355 34.4974C203.311 34.4974 203.287 34.4737 203.24 34.4289C203.217 34.4053 203.196 34.3605 203.196 34.2921C203.196 33.8789 202.945 33.6711 202.443 33.6474C202.053 33.6474 201.619 33.8553 201.164 34.2684C200.73 34.6816 200.341 35.1658 200.045 35.6947C199.747 36.2474 199.588 36.6842 199.588 37.0526C199.588 37.5132 199.724 37.7658 199.998 37.8105C200.341 37.8105 200.751 37.6026 201.277 37.1895C201.779 36.7763 202.351 36.2474 202.968 35.5789C203.036 35.4395 203.175 35.3711 203.358 35.3711C203.7 35.3711 203.86 35.5079 203.86 35.8079C203.86 37.2579 204.636 37.9711 206.192 37.9711C208.796 37.9711 212.203 36.8211 216.407 34.5447L216.451 34.5C216.543 34.4974 216.61 34.5184 216.655 34.5421Z" fill="#0E0A60"/>
<path d="M131.667 38.0816H0.622149C0.405149 38.0816 0.22998 37.9053 0.22998 37.6868C0.22998 37.4684 0.405149 37.2921 0.622149 37.2921H131.664C131.881 37.2921 132.056 37.4684 132.056 37.6868C132.056 37.9053 131.881 38.0816 131.667 38.0816Z" fill="#0E0A60"/>
</g>
<defs>
<clipPath id="clip0_2009_981">
<rect width="217" height="50" fill="white"/>
</clipPath>
</defs>
</svg>
