<svg width="191" height="102" viewBox="0 0 191 102" fill="none" xmlns="http://www.w3.org/2000/svg">
<path d="M16.2602 56.1727C23.8206 56.1727 24.0271 50.9528 24.0271 48.2346C24.0271 45.4166 23.9749 41.7068 20.0155 39.7758C17.9432 38.9434 12.4575 39.4642 11.0997 39.9327C11.0997 39.9327 10.5537 40.0493 10.53 40.5082C10.3282 44.0135 10.3211 48.9505 10.2807 53.1716C10.2736 54.1727 10.8528 55.0954 11.7881 55.4521C12.8705 55.8612 14.3802 56.1727 16.2602 56.1727ZM0 73.6636C2.55653 73.5066 4.63831 73.245 4.69054 71.2617C4.74513 69.4876 4.84958 64.213 4.84958 53.6115C4.84958 49.1217 4.79498 44.6318 4.69054 41.0813C4.63831 39.4119 3.54639 39.2027 1.0943 39.0457L0.365556 38.9934V37.06C1.82541 37.1646 4.84958 37.2693 7.61025 37.2693C15.5813 37.2693 15.6359 36.7461 18.0833 36.7461H19.1253C27.7254 36.7461 29.8618 42.2276 29.8618 47.3452C29.8618 51.4712 25.7434 58.7815 15.7902 58.7815C13.8627 58.7815 11.5175 58.5199 10.2143 57.9468C10.162 64.9431 10.1098 70.8431 10.1098 71.2617C10.1098 73.1927 13.0794 73.4543 15.8448 73.6636L17.8221 73.8205V75.5969H0V73.6636Z" fill="#1C1F1C"/>
<path d="M40.0999 73.6636C42.7062 73.5067 44.7904 73.2451 44.7904 71.2617C44.7904 70.8432 44.7382 51.4713 44.4248 41.0814C44.375 39.412 43.2807 39.2027 40.831 39.0458L40.0999 38.9934V37.0601H54.537V38.9934L53.8059 39.0458C51.3562 39.2027 50.2643 39.412 50.2097 41.0814C49.9486 48.5486 49.8441 70.7933 49.8441 71.2617C49.8441 73.1928 51.8238 73.4543 54.537 73.6636V75.597H40.0999V73.6636Z" fill="#1C1F1C"/>
<path d="M90.0531 58.1988L84.5626 44.5914C84.3561 44.0777 83.6321 44.0849 83.4327 44.5962L77.4366 59.9182C77.3582 60.1156 77.5196 60.3225 77.7285 60.2987L89.5902 58.9788C89.9629 58.936 90.1955 58.546 90.0531 58.1988ZM65.6936 73.7159C68.8222 73.4043 69.3943 72.8288 72.6796 64.6316L83.5181 37.4785C84.0926 37.06 86.6966 36.8008 87.0621 36.8008C87.0621 36.8008 100.403 69.8515 100.768 70.5839C101.601 72.0441 102.437 73.3496 105.041 73.7159V75.5946H90.1361V73.8205C92.0114 73.6636 94.7745 73.245 94.7745 71.5209C94.7745 70.4793 94.3567 69.1737 93.6802 67.6066L92.695 65.3117C92.3295 64.477 91.2898 61.9158 90.9242 60.9265L76.4847 62.7148C75.3382 65.2736 73.3062 70.4817 73.3062 71.2641C73.3062 72.9882 75.7583 73.352 77.9991 73.5613V75.5969H65.6983V73.7159H65.6936Z" fill="#1C1F1C"/>
<path d="M130.134 54.3463C135.399 54.3463 136.702 49.7495 136.702 46.7745C136.702 40.6652 133.486 39.7044 131.893 39.4C130.357 39.1075 126.59 39.3596 125.394 39.8804C125.394 39.8804 124.898 40.0397 124.871 40.4559C124.739 42.5415 124.715 47.4047 124.674 52.1918C124.667 52.998 125.18 53.7542 125.966 53.9421C127.051 54.206 128.534 54.3463 130.134 54.3463ZM114.707 73.6636C117.311 73.5066 119.398 73.245 119.398 71.2617C119.398 70.8431 119.345 51.4712 119.032 41.0813C118.98 39.4119 117.888 39.2027 115.438 39.0457L114.707 38.9934V37.06C116.167 37.1646 119.032 37.2693 121.952 37.2693C129.246 37.2693 130.288 36.7461 132.425 36.7461H133.467C137.899 36.7461 142.122 40.1896 142.122 46.0397C142.122 50.948 139.197 54.6507 134.556 56.4938C134.556 56.4938 139.793 66.3795 143.598 72.4341L146.655 73.245L146.819 75.5827C143.952 75.5827 143.111 75.5827 140.249 75.5922L130.459 56.9147C130.459 56.9147 125.963 56.7411 124.608 56.2726C124.506 63.6352 124.451 70.9953 124.451 71.2569C124.451 73.1879 126.431 73.4495 129.144 73.6588V75.5922H114.707V73.6636Z" fill="#1C1F1C"/>
<path d="M179.776 24.5823C181.808 25.0674 182.506 27.2862 182.333 27.4003C180.842 28.3991 174.262 31.6523 171.166 33.5596L170.293 32.4157C173.315 29.7285 177.796 26.3563 179.776 24.5823ZM168.726 71.6803C170.917 72.7766 172.479 72.8813 174.981 72.8813C181.079 72.8813 185.198 68.9122 185.198 57.2691C185.198 44.4774 180.298 40.4536 175.399 39.7236C174.931 39.6189 173.471 39.6189 172.586 39.6189C166.227 39.6189 161.382 43.7449 161.382 55.8066C161.379 57.583 161.379 67.923 168.726 71.6803ZM159.397 43.7449C163.305 37.8972 171.489 36.38 174.459 36.38C185.613 36.38 190.562 43.1694 190.562 54.1348C190.562 57.8422 190.145 64.4224 186.862 69.2262C183.109 74.76 175.605 76.3271 172.581 76.3271C160.959 76.3271 156.06 67.816 156.06 56.9029C156.062 50.9505 157.467 46.67 159.397 43.7449Z" fill="#1C1F1C"/>
<path d="M94.2329 1.01069C94.2329 0.444703 94.6768 0 95.2418 0C95.8067 0 96.2506 0.444703 96.2506 1.01069C96.2506 1.57667 95.8067 2.02138 95.2418 2.02138C94.6768 2.02138 94.2329 1.57667 94.2329 1.01069ZM94.2329 7.07482C94.2329 6.50883 94.6768 6.06413 95.2418 6.06413C95.8067 6.06413 96.2506 6.50883 96.2506 7.07482C96.2506 7.6408 95.8067 8.08551 95.2418 8.08551C94.6768 8.08551 94.2329 7.6408 94.2329 7.07482ZM94.2329 13.1413C94.2329 12.5753 94.6768 12.1306 95.2418 12.1306C95.8067 12.1306 96.2506 12.5753 96.2506 13.1413C96.2506 13.7073 95.8067 14.152 95.2418 14.152C94.6768 14.152 94.2329 13.7073 94.2329 13.1413ZM94.2329 19.2055C94.2329 18.6395 94.6768 18.1948 95.2418 18.1948C95.8067 18.1948 96.2506 18.6395 96.2506 19.2055C96.2506 19.7714 95.8067 20.2161 95.2418 20.2161C94.6768 20.2161 94.2329 19.7714 94.2329 19.2055Z" fill="#1C1F1C"/>
<path d="M79.1981 2.62526C79.0984 2.08068 79.4616 1.55512 80.0076 1.45286C80.5512 1.35299 81.0758 1.71446 81.1778 2.26142C81.2799 2.8274 80.9143 3.35296 80.3518 3.43619C80.29 3.45522 80.2283 3.45522 80.169 3.45522C79.7037 3.45522 79.2788 3.11277 79.1981 2.62526ZM80.226 8.59189C80.1452 8.04493 80.5108 7.51937 81.0544 7.41949C81.6004 7.31723 82.125 7.70248 82.227 8.24707C82.3267 8.79165 81.9635 9.31959 81.3986 9.41947H81.2372C80.7529 9.41947 80.328 9.07702 80.226 8.59189ZM81.2989 14.5775C81.1968 14.0116 81.56 13.505 82.106 13.4028C82.6519 13.3029 83.1765 13.6667 83.2762 14.2137C83.3783 14.7583 83.0127 15.2862 82.4691 15.3861C82.4074 15.4051 82.3481 15.4051 82.2887 15.4051C81.8021 15.4051 81.3796 15.0603 81.2989 14.5775ZM82.3457 20.5394C82.246 19.9925 82.6092 19.4669 83.1552 19.367C83.7011 19.2648 84.2257 19.631 84.3254 20.1946C84.4251 20.7415 84.0643 21.2671 83.516 21.3694H83.3356C82.8513 21.3694 82.4264 21.0245 82.3457 20.5394Z" fill="#1C1F1C"/>
<path d="M64.6492 6.83449C64.4688 6.30655 64.7299 5.72154 65.2545 5.53843C65.7791 5.33629 66.3654 5.61928 66.5482 6.14722C66.7476 6.67278 66.4675 7.23876 65.9405 7.4409C65.8384 7.47895 65.7198 7.50273 65.5963 7.50273C65.1928 7.50035 64.8106 7.23638 64.6492 6.83449ZM66.7262 12.5324C66.5245 12.0068 66.8069 11.4218 67.3339 11.2387C67.8585 11.0366 68.4235 11.3196 68.6229 11.8237C68.8056 12.3517 68.5421 12.9367 68.0175 13.1388C67.8989 13.1792 67.7968 13.2006 67.6734 13.2006C67.2508 13.203 66.8687 12.939 66.7262 12.5324ZM68.8056 18.235C68.6039 17.7095 68.8674 17.1245 69.3896 16.9223C69.9166 16.7392 70.5005 17.0032 70.6833 17.5288C70.8827 18.0543 70.6216 18.6417 70.097 18.8248C69.9759 18.8629 69.8548 18.8843 69.7338 18.8843C69.3326 18.8819 68.9457 18.6393 68.8056 18.235ZM70.8637 23.9377C70.6833 23.3907 70.9444 22.8271 71.469 22.625C71.996 22.4419 72.5799 22.7059 72.7603 23.2314C72.9644 23.7594 72.6796 24.3444 72.155 24.5251C72.0553 24.5655 71.9342 24.5869 71.8108 24.5869C71.4073 24.5845 71.0251 24.342 70.8637 23.9377Z" fill="#1C1F1C"/>
<path d="M124.624 6.97484C124.1 6.7727 123.817 6.20672 124.019 5.68116C124.2 5.15322 124.786 4.89163 125.311 5.07237C125.837 5.2531 126.099 5.84049 125.918 6.36605C125.757 6.77032 125.372 7.03429 124.969 7.03429C124.848 7.03667 124.727 7.01289 124.624 6.97484ZM122.547 12.6775C122.02 12.4754 121.757 11.9094 121.94 11.3814C122.12 10.8559 122.704 10.5729 123.231 10.775C123.758 10.9581 124.019 11.5431 123.839 12.0687C123.694 12.473 123.293 12.7346 122.892 12.7346C122.768 12.7346 122.647 12.7155 122.547 12.6775ZM120.468 18.3754C119.943 18.1733 119.68 17.6097 119.863 17.0817C120.065 16.5562 120.651 16.2732 121.173 16.4753C121.676 16.656 121.961 17.2411 121.757 17.769C121.615 18.1709 121.232 18.4349 120.81 18.4349C120.689 18.4372 120.589 18.4182 120.468 18.3754ZM118.41 24.0781C117.885 23.8759 117.603 23.2885 117.805 22.7654C117.985 22.2612 118.569 21.9758 119.094 22.178C119.623 22.3611 119.884 22.9461 119.704 23.474C119.54 23.8759 119.158 24.1399 118.754 24.1399C118.633 24.1399 118.512 24.1185 118.41 24.0781Z" fill="#1C1F1C"/>
<path d="M110.157 3.21256C109.592 3.11268 109.229 2.58712 109.328 2.04016C109.43 1.4932 109.955 1.11033 110.499 1.21021C111.047 1.31246 111.408 1.83802 111.308 2.38498C111.227 2.87011 110.805 3.23158 110.318 3.21256H110.157ZM109.086 9.17919C108.54 9.07693 108.177 8.55137 108.279 8.00679C108.379 7.45983 108.904 7.09598 109.449 7.19586C109.993 7.27672 110.359 7.80465 110.257 8.36826C110.176 8.85339 109.753 9.19821 109.269 9.19821C109.21 9.19821 109.146 9.19821 109.086 9.17919ZM108.037 15.1625C107.491 15.0602 107.128 14.5346 107.23 13.9877C107.311 13.4217 107.838 13.0579 108.4 13.1601C108.946 13.26 109.309 13.7855 109.21 14.3325C109.127 14.8176 108.707 15.1625 108.22 15.1625H108.037ZM106.988 21.1267C106.444 21.0268 106.081 20.4989 106.162 19.9543C106.262 19.4074 106.786 19.0435 107.334 19.1434C107.897 19.2242 108.26 19.7522 108.158 20.2968C108.077 20.8009 107.655 21.1434 107.171 21.1434C107.109 21.1457 107.047 21.1457 106.988 21.1267Z" fill="#1C1F1C"/>
<path d="M43.0763 95.1993C43.0692 94.8331 43.0241 94.5858 42.9481 94.4574C42.8698 94.329 42.7273 94.2624 42.5113 94.2624H41.8301C41.0277 94.2624 40.515 94.7166 40.2847 95.6226C40.1969 95.6226 40.1043 95.6036 40.0046 95.5656C40.1542 94.9116 40.2515 94.3337 40.2966 93.8343C40.2966 93.8129 40.3108 93.801 40.3488 93.801C41.4313 93.889 42.338 93.9294 43.0668 93.9247H44.0709C44.8423 93.9247 45.7159 93.8843 46.6891 93.801C46.7105 93.801 46.7224 93.8129 46.7224 93.8343C46.7366 94.3789 46.7865 94.9449 46.8719 95.5299C46.7841 95.5656 46.6915 95.587 46.5918 95.587C46.3995 94.7071 45.8607 94.2671 44.9776 94.2624H44.6026C44.3961 94.2624 44.2537 94.3266 44.1848 94.4526C44.1136 94.5763 44.0709 94.826 44.0566 95.1993C44.0424 95.6892 44.0353 96.5335 44.0353 97.7273C44.0353 98.7261 44.0424 99.5465 44.0566 100.196C44.0638 100.648 44.1445 100.933 44.2964 101.054C44.4483 101.173 44.7474 101.24 45.196 101.256C45.2839 101.351 45.2839 101.439 45.196 101.523C45.0394 101.523 44.7901 101.516 44.4459 101.497C44.0994 101.477 43.8074 101.468 43.5724 101.468C43.335 101.468 43.0407 101.477 42.687 101.497C42.3333 101.516 42.0817 101.523 41.9345 101.523C41.9036 101.487 41.887 101.439 41.887 101.385C41.887 101.33 41.9013 101.287 41.9345 101.259C42.3855 101.242 42.687 101.175 42.8413 101.057C42.9932 100.935 43.0739 100.65 43.081 100.198C43.0953 99.5489 43.1024 98.7237 43.1024 97.7177C43.0976 96.5977 43.0905 95.7582 43.0763 95.1993Z" fill="#1C1F1C"/>
<path d="M50.5493 94.6408C50.5351 95.9392 50.528 96.9642 50.528 97.7157V97.7751C50.6989 97.8108 51.0051 97.8322 51.449 97.8322C52.6287 97.8322 53.2174 97.2187 53.2174 95.9939C53.2174 95.309 53.0607 94.8168 52.7522 94.5219C52.4412 94.2294 52.0519 94.0796 51.5843 94.0796C51.1902 94.0796 50.922 94.1295 50.7772 94.2223C50.6348 94.315 50.5564 94.4553 50.5493 94.6408ZM50.528 98.032C50.528 98.4862 50.5351 99.2995 50.5493 100.472C50.5564 100.791 50.6371 100.997 50.7867 101.088C50.9386 101.178 51.2353 101.235 51.6745 101.257C51.7053 101.278 51.722 101.321 51.722 101.378C51.722 101.437 51.7101 101.485 51.6863 101.525C51.5297 101.525 51.2876 101.516 50.9552 101.499C50.6229 101.48 50.3357 101.471 50.0936 101.471C49.8775 101.471 49.6141 101.48 49.2983 101.499C48.985 101.516 48.7453 101.525 48.5815 101.525C48.553 101.487 48.5364 101.437 48.5364 101.378C48.5364 101.318 48.553 101.278 48.5815 101.257C49.0135 101.242 49.2865 101.183 49.3957 101.083C49.5072 100.983 49.5666 100.71 49.5737 100.263C49.5879 99.0878 49.5951 98.2389 49.5951 97.7157C49.5951 97.3352 49.5879 96.4933 49.5737 95.1925C49.5666 94.7217 49.5049 94.4315 49.3909 94.3198C49.277 94.208 49.0088 94.1414 48.5815 94.1271C48.553 94.0915 48.5364 94.0439 48.5364 93.994C48.5364 93.9393 48.553 93.9012 48.5815 93.8727C48.7524 93.8727 48.9898 93.8822 49.2983 93.9012C49.6046 93.9179 49.8609 93.9274 50.0698 93.9274C50.2407 93.9274 50.528 93.9107 50.9267 93.8703C51.3279 93.8323 51.5724 93.8132 51.6602 93.8132C52.1469 93.8132 52.567 93.8798 52.9183 94.013C53.272 94.1485 53.5284 94.3245 53.6922 94.5433C53.8583 94.7621 53.9746 94.9714 54.0459 95.1735C54.1194 95.3733 54.155 95.5754 54.155 95.7823C54.155 96.2151 54.0459 96.6241 53.8275 97.0141C53.6115 97.4018 53.2696 97.6943 52.7996 97.8893L54.2619 100.441C54.6274 101.026 55.0523 101.316 55.5389 101.314C55.5674 101.38 55.5722 101.44 55.5508 101.494C55.4392 101.554 55.2375 101.582 54.9384 101.582C54.3141 101.582 53.7919 101.235 53.367 100.543L52.1184 98.51C52.0495 98.3911 51.9997 98.3102 51.9664 98.2698C51.9356 98.2317 51.881 98.1913 51.8074 98.1556C51.7338 98.1199 51.6341 98.0985 51.5107 98.0985C51.0027 98.1009 50.6751 98.0771 50.528 98.032Z" fill="#1C1F1C"/>
<path d="M60.564 94.0415C59.9658 94.0415 59.4246 94.3554 58.9403 94.9832C58.4584 95.6134 58.2163 96.4957 58.2163 97.6419C58.2163 98.724 58.4964 99.6038 59.0566 100.289C59.6168 100.971 60.272 101.316 61.0197 101.316C61.6939 101.316 62.2564 100.995 62.7075 100.353C63.1585 99.7109 63.3816 98.8738 63.3816 97.8441C63.3816 96.6954 63.111 95.7727 62.5674 95.0807C62.0286 94.3887 61.3592 94.0415 60.564 94.0415ZM64.4403 97.6181C64.4403 98.6169 64.2053 99.4469 63.7377 100.11C63.4101 100.579 62.9971 100.94 62.4938 101.197C61.993 101.456 61.4209 101.585 60.7895 101.585C59.7711 101.585 58.9142 101.24 58.2163 100.555C57.5184 99.8702 57.1719 98.9665 57.1719 97.8441C57.1719 96.7953 57.4306 95.913 57.9457 95.1996C58.2733 94.7525 58.6745 94.4006 59.1492 94.1509C59.6263 93.8988 60.1486 93.7751 60.7135 93.7751C61.7912 93.7751 62.679 94.1223 63.384 94.8144C64.0866 95.5088 64.4403 96.4434 64.4403 97.6181Z" fill="#1C1F1C"/>
<path d="M68.1933 94.643C68.1791 95.9414 68.1719 96.9664 68.1719 97.7179V97.775C68.3428 97.813 68.6491 97.832 69.0929 97.832C70.2727 97.832 70.8614 97.2185 70.8614 95.9938C70.8614 95.3089 70.7047 94.8166 70.3938 94.5241C70.0852 94.2292 69.6935 94.0818 69.2282 94.0818C68.8342 94.0818 68.566 94.1293 68.4212 94.2221C68.2764 94.3148 68.2004 94.4551 68.1933 94.643ZM68.1719 98.008C68.1719 98.4836 68.1791 99.3064 68.1933 100.474C68.2004 100.786 68.2906 100.99 68.4592 101.083C68.6301 101.178 68.9363 101.235 69.3849 101.259C69.4134 101.287 69.4324 101.333 69.4324 101.385C69.4324 101.442 69.4205 101.487 69.3968 101.528C69.2401 101.528 68.9861 101.518 68.6324 101.499C68.2764 101.48 67.9797 101.471 67.7352 101.471C67.5191 101.471 67.2557 101.48 66.94 101.499C66.6266 101.518 66.3869 101.528 66.2231 101.528C66.1946 101.49 66.178 101.442 66.178 101.385C66.178 101.33 66.1946 101.287 66.2231 101.259C66.648 101.245 66.9186 101.18 67.0325 101.073C67.1465 100.964 67.2082 100.674 67.2153 100.198C67.2296 99.5514 67.2367 98.7238 67.2367 97.7203C67.2367 97.3374 67.2296 96.4955 67.2153 95.1947C67.2082 94.7262 67.1465 94.4337 67.0325 94.322C66.9186 94.2102 66.648 94.146 66.2231 94.1317C66.1946 94.0937 66.178 94.0485 66.178 93.9962C66.178 93.9438 66.1946 93.9034 66.2231 93.8749C66.394 93.8749 66.6314 93.8844 66.94 93.9034C67.2438 93.9224 67.5025 93.932 67.7114 93.932C67.8823 93.932 68.1672 93.9129 68.5683 93.8725C68.9695 93.8368 69.214 93.8154 69.3018 93.8154C69.7885 93.8154 70.2086 93.8844 70.5599 94.0176C70.9136 94.1507 71.17 94.3267 71.3338 94.5455C71.4999 94.7643 71.6162 94.9759 71.6875 95.1757C71.761 95.3778 71.7943 95.58 71.7943 95.7869C71.7943 96.0603 71.7539 96.3219 71.6661 96.5716C71.5806 96.8213 71.4453 97.0663 71.2578 97.3088C71.0703 97.5514 70.7973 97.744 70.4365 97.8867C70.0733 98.0318 69.6484 98.1008 69.1618 98.1008C68.7155 98.0984 68.3856 98.0698 68.1719 98.008Z" fill="#1C1F1C"/>
<path d="M75.8507 100.196C75.8578 100.448 75.8744 100.638 75.9006 100.769C75.9243 100.9 75.9813 101.004 76.0691 101.076C76.1569 101.152 76.2542 101.197 76.3587 101.218C76.4655 101.235 76.634 101.249 76.869 101.256C76.8999 101.29 76.9213 101.335 76.9236 101.39C76.9236 101.447 76.907 101.489 76.869 101.523C76.7005 101.518 76.4631 101.508 76.1474 101.492C75.8365 101.475 75.573 101.468 75.357 101.468C75.141 101.468 74.8751 101.475 74.557 101.492C74.2413 101.508 74.0039 101.518 73.8449 101.523C73.8116 101.489 73.7927 101.444 73.7927 101.39C73.7927 101.335 73.8093 101.29 73.8449 101.256C74.0751 101.245 74.2389 101.233 74.3457 101.214C74.4502 101.197 74.5451 101.152 74.633 101.078C74.7184 101.004 74.7754 100.9 74.8015 100.769C74.8276 100.636 74.8419 100.443 74.8442 100.198C74.868 99.2279 74.8798 98.4027 74.8798 97.7202C74.8798 97.0139 74.868 96.1768 74.8442 95.2018C74.8419 95.0353 74.8347 94.8974 74.8252 94.7904C74.8134 94.681 74.7896 94.5882 74.7517 94.5074C74.7184 94.4265 74.6781 94.3647 74.6401 94.3219C74.6021 94.2791 74.538 94.2434 74.4526 94.2173C74.3647 94.1911 74.2793 94.1745 74.1986 94.1649C74.1131 94.1578 73.9968 94.1507 73.8425 94.1412C73.8093 94.1079 73.7903 94.0627 73.7903 94.0104C73.7903 93.9533 73.8069 93.9105 73.8425 93.8772C74.0087 93.8796 74.246 93.8891 74.557 93.9057C74.868 93.9224 75.1291 93.9319 75.3427 93.9319C75.5611 93.9319 75.8293 93.9224 76.1498 93.9057C76.4655 93.8891 76.7053 93.8796 76.8667 93.8772C76.8975 93.9105 76.9189 93.9557 76.9213 94.0104C76.9213 94.0651 76.9047 94.1079 76.8667 94.1412C76.6317 94.1531 76.4655 94.1673 76.3611 94.184C76.259 94.2006 76.1617 94.2482 76.0738 94.3219C75.986 94.398 75.929 94.5026 75.9029 94.6311C75.8768 94.7595 75.8602 94.9497 75.8507 95.1994C75.8293 95.9866 75.8175 96.8284 75.8175 97.7297C75.8151 98.4098 75.827 99.2327 75.8507 100.196Z" fill="#1C1F1C"/>
<path d="M82.3572 101.582C81.5762 101.582 80.8974 101.394 80.3277 101.021C79.7603 100.645 79.3426 100.179 79.0838 99.6204C78.8227 99.0615 78.6921 98.4575 78.6921 97.8059C78.6921 96.5431 79.0933 95.53 79.9004 94.7691C80.6054 94.1056 81.4291 93.7703 82.3715 93.7703C82.9293 93.7703 83.4753 93.8606 84.0117 94.039C84.5458 94.2197 84.852 94.3125 84.9327 94.3196C85.0657 95.14 85.1511 95.7417 85.1891 96.1317C85.1203 96.1793 85.0301 96.1983 84.9209 96.1912C84.4983 94.8 83.6295 94.1056 82.3145 94.1079C81.9964 94.1079 81.6522 94.2007 81.289 94.3838C80.9235 94.5669 80.6006 94.8285 80.3182 95.1733C79.8577 95.7441 79.6274 96.5479 79.6274 97.5847C79.6274 98.1769 79.7247 98.7476 79.9194 99.2922C80.1116 99.8368 80.4226 100.298 80.8475 100.676C81.2748 101.054 81.7757 101.245 82.3477 101.245C82.8771 101.245 83.3542 101.133 83.7791 100.905C84.2064 100.679 84.6313 100.327 85.0562 99.851C85.1749 99.851 85.2627 99.9105 85.3244 100.027C84.5221 101.064 83.5322 101.582 82.3572 101.582Z" fill="#1C1F1C"/>
<path d="M89.9822 98.2197H92.0711L90.9483 94.9783H90.9151L89.6902 98.0033C89.6641 98.0651 89.676 98.115 89.7258 98.1578C89.7757 98.2006 89.8635 98.2197 89.9822 98.2197ZM88.6624 100.655C88.6386 100.717 88.6291 100.771 88.6268 100.824C88.6244 100.874 88.6315 100.916 88.6481 100.952C88.6647 100.988 88.6861 101.023 88.717 101.054C88.7455 101.083 88.7858 101.109 88.8309 101.128C88.8784 101.147 88.9235 101.164 88.9709 101.183C89.0184 101.197 89.0706 101.209 89.1347 101.218C89.1988 101.228 89.2534 101.235 89.3033 101.242C89.3531 101.247 89.4077 101.252 89.4694 101.254C89.5027 101.287 89.5217 101.335 89.524 101.387C89.5264 101.444 89.5074 101.487 89.4694 101.52C89.3579 101.518 89.1656 101.506 88.8902 101.49C88.6149 101.473 88.3894 101.466 88.2113 101.466C88.0428 101.466 87.8387 101.473 87.5989 101.49C87.3544 101.506 87.174 101.518 87.053 101.52C87.0197 101.487 87.0007 101.442 87.0007 101.387C87.0007 101.333 87.0173 101.287 87.053 101.254C87.3378 101.237 87.5704 101.168 87.7437 101.054C87.9218 100.943 88.0808 100.719 88.2208 100.393L90.9246 94.0057C91.0717 94.0057 91.2735 93.9272 91.537 93.7703L93.9748 100.576C94.0247 100.721 94.084 100.838 94.1529 100.928C94.2241 101.019 94.3119 101.085 94.4163 101.128C94.5208 101.171 94.611 101.202 94.6893 101.216C94.7677 101.23 94.8792 101.245 95.024 101.254C95.0573 101.287 95.0762 101.335 95.0762 101.387C95.0762 101.444 95.0596 101.487 95.024 101.52C94.9148 101.518 94.77 101.511 94.5944 101.501C94.4163 101.492 94.2431 101.485 94.0745 101.478C93.9036 101.468 93.7493 101.466 93.6093 101.466C93.4336 101.466 93.1606 101.475 92.7856 101.494C92.4129 101.511 92.1755 101.52 92.0806 101.52C92.0473 101.487 92.0283 101.442 92.0283 101.387C92.0283 101.333 92.045 101.287 92.0806 101.254C92.1067 101.254 92.147 101.254 92.1945 101.249C92.2776 101.245 92.3417 101.242 92.3797 101.237C92.4176 101.235 92.4746 101.228 92.5435 101.218C92.6123 101.209 92.6621 101.199 92.6977 101.19C92.731 101.18 92.7713 101.169 92.8164 101.149C92.8639 101.133 92.8948 101.114 92.9114 101.09C92.9256 101.066 92.9446 101.038 92.9636 101.004C92.9802 100.973 92.985 100.933 92.9826 100.888C92.9778 100.84 92.9683 100.79 92.9494 100.736L92.2087 98.555H89.7757C89.6475 98.555 89.5549 98.5764 89.5003 98.6192C89.4433 98.662 89.4006 98.7262 89.3674 98.8166L88.6624 100.655Z" fill="#1C1F1C"/>
<path d="M98.4608 100.196C98.4727 100.822 98.6958 101.133 99.1254 101.133H99.9729C100.54 101.133 100.967 101 101.25 100.731C101.532 100.462 101.739 100.084 101.874 99.5968C101.95 99.5873 102.04 99.6063 102.142 99.661C102.076 100.213 101.976 100.836 101.841 101.528C101.122 101.49 100.657 101.471 100.448 101.471H97.9623C97.8436 101.471 97.6086 101.478 97.2549 101.495C96.9036 101.511 96.633 101.521 96.4431 101.525C96.4099 101.492 96.3909 101.447 96.3909 101.392C96.3909 101.338 96.4075 101.292 96.4431 101.259C96.6757 101.247 96.8443 101.235 96.9487 101.216C97.0555 101.2 97.1528 101.154 97.2407 101.081C97.3261 101.007 97.3855 100.902 97.4116 100.772C97.4377 100.638 97.4519 100.446 97.4543 100.201C97.4781 99.2306 97.4899 98.4054 97.4899 97.7229C97.4899 97.0166 97.4781 96.1795 97.4543 95.2045C97.4519 95.038 97.4448 94.9001 97.433 94.7931C97.4235 94.6837 97.3997 94.5909 97.3617 94.5101C97.3285 94.4292 97.2881 94.3674 97.2502 94.3246C97.2122 94.2818 97.1481 94.2461 97.0626 94.2199C96.9748 94.1938 96.8894 94.1771 96.8087 94.1676C96.7232 94.1605 96.6069 94.1534 96.4502 94.1438C96.4194 94.1106 96.4004 94.0654 96.4004 94.0131C96.4004 93.956 96.417 93.9132 96.4526 93.8799C96.6188 93.8823 96.8561 93.8918 97.1671 93.9084C97.4781 93.9251 97.7392 93.9346 97.9528 93.9346C98.1688 93.9346 98.4371 93.9251 98.7575 93.9084C99.0732 93.8918 99.313 93.8823 99.4744 93.8799C99.5076 93.9132 99.5266 93.9584 99.529 94.0131C99.5314 94.0678 99.5124 94.1106 99.4744 94.1438C99.2417 94.1557 99.0756 94.17 98.9711 94.1867C98.8667 94.2033 98.7718 94.2509 98.6839 94.3246C98.5961 94.4007 98.5391 94.5053 98.513 94.6337C98.4869 94.7622 98.4703 94.9524 98.4608 95.2021C98.4394 95.9892 98.4276 96.8311 98.4276 97.7324C98.4252 97.8893 98.4371 98.7122 98.4608 100.196Z" fill="#1C1F1C"/>
<path d="M109.591 100.196C109.603 100.822 109.826 101.133 110.256 101.133H111.103C111.671 101.133 112.098 101 112.381 100.731C112.663 100.462 112.87 100.084 113.005 99.5968C113.081 99.5873 113.171 99.6063 113.273 99.661C113.207 100.213 113.107 100.836 112.972 101.528C112.252 101.49 111.787 101.471 111.578 101.471H109.091C108.974 101.471 108.737 101.478 108.386 101.495C108.034 101.511 107.764 101.521 107.574 101.525C107.54 101.492 107.521 101.447 107.521 101.392C107.521 101.338 107.538 101.292 107.574 101.259C107.806 101.247 107.972 101.235 108.079 101.216C108.186 101.2 108.283 101.154 108.369 101.081C108.457 101.007 108.516 100.902 108.542 100.772C108.568 100.638 108.583 100.446 108.585 100.201C108.609 99.2306 108.618 98.4054 108.618 97.7229C108.618 97.0166 108.609 96.1795 108.585 95.2045C108.583 95.038 108.573 94.9001 108.564 94.7931C108.554 94.6837 108.53 94.5909 108.492 94.5101C108.459 94.4292 108.419 94.3674 108.381 94.3246C108.343 94.2818 108.279 94.2461 108.193 94.2199C108.105 94.1938 108.02 94.1771 107.939 94.1676C107.854 94.1605 107.737 94.1534 107.581 94.1438C107.55 94.1106 107.531 94.0654 107.531 94.0131C107.531 93.956 107.548 93.9132 107.583 93.8799C107.749 93.8823 107.987 93.8918 108.298 93.9084C108.609 93.9251 108.87 93.9346 109.083 93.9346C109.299 93.9346 109.568 93.9251 109.888 93.9084C110.204 93.8918 110.444 93.8823 110.605 93.8799C110.636 93.9132 110.657 93.9584 110.66 94.0131C110.66 94.0678 110.643 94.1106 110.605 94.1438C110.372 94.1557 110.206 94.17 110.102 94.1867C109.997 94.2033 109.902 94.2509 109.815 94.3246C109.727 94.4007 109.67 94.5053 109.644 94.6337C109.618 94.7622 109.601 94.9524 109.591 95.2021C109.568 95.9892 109.558 96.8311 109.558 97.7324C109.556 97.8893 109.565 98.7122 109.591 100.196Z" fill="#1C1F1C"/>
<path d="M116.682 100.196C116.689 100.448 116.706 100.638 116.732 100.769C116.756 100.9 116.812 101.004 116.9 101.076C116.988 101.152 117.085 101.197 117.19 101.218C117.297 101.235 117.465 101.249 117.696 101.256C117.729 101.29 117.75 101.335 117.75 101.39C117.752 101.447 117.736 101.489 117.696 101.523C117.529 101.518 117.292 101.508 116.976 101.492C116.665 101.475 116.402 101.468 116.186 101.468C115.97 101.468 115.704 101.475 115.386 101.492C115.07 101.508 114.833 101.518 114.674 101.523C114.64 101.489 114.622 101.444 114.622 101.39C114.622 101.335 114.638 101.29 114.671 101.256C114.904 101.245 115.068 101.233 115.175 101.214C115.279 101.197 115.374 101.152 115.462 101.078C115.547 101.004 115.604 100.9 115.63 100.769C115.656 100.636 115.671 100.443 115.673 100.198C115.697 99.2279 115.706 98.4027 115.706 97.7202C115.706 97.0139 115.697 96.1768 115.673 95.2018C115.671 95.0353 115.664 94.8974 115.652 94.7904C115.642 94.681 115.618 94.5882 115.581 94.5074C115.547 94.4265 115.507 94.3647 115.469 94.3219C115.431 94.2791 115.367 94.2434 115.281 94.2173C115.194 94.1911 115.108 94.1745 115.027 94.1649C114.942 94.1578 114.826 94.1507 114.669 94.1412C114.638 94.1079 114.619 94.0627 114.619 94.0104C114.619 93.9533 114.636 93.9105 114.671 93.8772C114.838 93.8796 115.075 93.8891 115.386 93.9057C115.697 93.9224 115.958 93.9319 116.172 93.9319C116.39 93.9319 116.658 93.9224 116.976 93.9057C117.294 93.8891 117.534 93.8796 117.693 93.8772C117.726 93.9105 117.748 93.9557 117.748 94.0104C117.75 94.0651 117.733 94.1079 117.693 94.1412C117.461 94.1531 117.294 94.1673 117.19 94.184C117.088 94.2006 116.991 94.2482 116.903 94.3219C116.815 94.398 116.758 94.5026 116.732 94.6311C116.706 94.7595 116.689 94.9497 116.68 95.1994C116.658 95.9866 116.646 96.8284 116.646 97.7297C116.649 98.4098 116.661 99.2327 116.682 100.196Z" fill="#1C1F1C"/>
<path d="M124.857 94.1365C124.829 94.0984 124.81 94.0509 124.807 93.9985C124.805 93.9415 124.822 93.901 124.857 93.8701C125.052 93.8773 125.289 93.8891 125.572 93.9034C125.856 93.9177 126.039 93.9248 126.127 93.9248C126.21 93.9248 126.364 93.9177 126.583 93.9034C126.799 93.8891 126.989 93.8773 127.155 93.8701C127.243 93.9652 127.243 94.0556 127.155 94.1388C126.972 94.1602 126.811 94.2102 126.671 94.2863C126.528 94.36 126.41 94.4646 126.31 94.5954C126.213 94.7286 126.134 94.8499 126.082 94.9545C126.025 95.0615 125.963 95.2042 125.89 95.3802L123.48 101.337C123.412 101.518 123.319 101.608 123.2 101.613C123.091 101.613 123.003 101.52 122.932 101.337L120.625 95.354C120.447 94.8951 120.288 94.5835 120.148 94.4218C120.005 94.2601 119.78 94.165 119.464 94.1388C119.369 94.0437 119.367 93.9534 119.454 93.8701C119.625 93.8701 119.849 93.8796 120.124 93.8987C120.402 93.9177 120.622 93.9248 120.786 93.9248C120.95 93.9248 121.183 93.9177 121.486 93.8987C121.79 93.8796 122.03 93.8701 122.201 93.8701C122.229 93.901 122.246 93.9438 122.246 93.9985C122.246 94.0532 122.229 94.0984 122.201 94.1365C121.816 94.1745 121.586 94.2792 121.513 94.4456C121.437 94.6168 121.472 94.8761 121.619 95.2185L123.478 99.9794L123.58 100.129L123.637 99.9794L125.479 95.2922C125.636 94.9736 125.671 94.7048 125.588 94.4884C125.503 94.2792 125.258 94.1602 124.857 94.1365Z" fill="#1C1F1C"/>
<path d="M130.879 100.196C130.887 100.448 130.903 100.638 130.929 100.769C130.953 100.9 131.01 101.004 131.098 101.076C131.186 101.152 131.283 101.197 131.387 101.218C131.494 101.235 131.663 101.249 131.893 101.256C131.926 101.29 131.948 101.335 131.948 101.39C131.95 101.447 131.933 101.489 131.893 101.523C131.727 101.518 131.489 101.508 131.174 101.492C130.863 101.475 130.599 101.468 130.381 101.468C130.167 101.468 129.901 101.475 129.583 101.492C129.268 101.508 129.03 101.518 128.871 101.523C128.838 101.489 128.819 101.444 128.819 101.39C128.819 101.335 128.836 101.29 128.869 101.256C129.101 101.245 129.265 101.233 129.372 101.214C129.477 101.197 129.572 101.152 129.659 101.078C129.745 101.004 129.802 100.9 129.828 100.769C129.854 100.636 129.868 100.443 129.871 100.198C129.894 99.2279 129.904 98.4027 129.904 97.7202C129.904 97.0139 129.894 96.1768 129.871 95.2018C129.868 95.0353 129.861 94.8974 129.849 94.7904C129.84 94.681 129.816 94.5882 129.778 94.5074C129.745 94.4265 129.704 94.3647 129.666 94.3219C129.628 94.2791 129.564 94.2434 129.479 94.2173C129.391 94.1911 129.306 94.1745 129.225 94.1649C129.139 94.1578 129.023 94.1507 128.866 94.1412C128.836 94.1079 128.817 94.0627 128.817 94.0104C128.817 93.9533 128.833 93.9105 128.869 93.8772C129.035 93.8796 129.272 93.8891 129.583 93.9057C129.894 93.9224 130.155 93.9319 130.369 93.9319C130.587 93.9319 130.856 93.9224 131.174 93.9057C131.492 93.8891 131.732 93.8796 131.891 93.8772C131.924 93.9105 131.945 93.9557 131.945 94.0104C131.948 94.0651 131.931 94.1079 131.891 94.1412C131.658 94.1531 131.492 94.1673 131.387 94.184C131.285 94.2006 131.188 94.2482 131.1 94.3219C131.012 94.398 130.955 94.5026 130.929 94.6311C130.903 94.7595 130.887 94.9497 130.877 95.1994C130.856 95.9866 130.844 96.8284 130.844 97.7297C130.844 98.4098 130.858 99.2327 130.879 100.196Z" fill="#1C1F1C"/>
<path d="M140.04 95.3305C140.04 95.0593 140.028 94.8525 140.004 94.705C139.98 94.5576 139.919 94.4434 139.826 94.3626C139.733 94.2793 139.636 94.2294 139.534 94.2032C139.432 94.1818 139.259 94.1604 139.019 94.1343C138.986 94.101 138.967 94.0558 138.967 94.0011C138.967 93.9464 138.983 93.9012 139.019 93.8679C139.206 93.8727 139.418 93.8822 139.657 93.8988C139.897 93.9155 140.104 93.925 140.275 93.925C140.446 93.925 140.652 93.9155 140.897 93.8988C141.141 93.8822 141.352 93.8727 141.535 93.8679C141.568 93.9012 141.587 93.9488 141.587 94.0011C141.587 94.0582 141.571 94.101 141.535 94.1343C141.302 94.1581 141.134 94.1842 141.022 94.2104C140.916 94.2341 140.816 94.2912 140.726 94.3721C140.633 94.4553 140.576 94.5671 140.552 94.7121C140.531 94.8596 140.522 95.0641 140.522 95.3305L140.51 101.223V101.295V101.361C140.51 101.376 140.507 101.395 140.507 101.418C140.505 101.442 140.503 101.459 140.5 101.471C140.498 101.483 140.495 101.494 140.493 101.511C140.488 101.525 140.484 101.537 140.476 101.544C140.469 101.552 140.46 101.559 140.45 101.566C140.441 101.573 140.431 101.578 140.417 101.58C140.405 101.582 140.389 101.582 140.367 101.582C140.194 101.582 140.037 101.49 139.9 101.302L135.826 96.1461C135.629 95.8869 135.496 95.7609 135.435 95.7656C135.333 95.7656 135.28 95.9559 135.28 96.3364L135.29 100.063C135.29 100.334 135.302 100.541 135.323 100.688C135.347 100.836 135.404 100.95 135.499 101.031C135.591 101.114 135.689 101.164 135.791 101.19C135.893 101.211 136.064 101.233 136.306 101.259C136.339 101.292 136.358 101.337 136.358 101.392C136.358 101.447 136.341 101.492 136.306 101.525C136.144 101.521 135.995 101.513 135.85 101.504C135.703 101.497 135.57 101.487 135.449 101.48C135.325 101.473 135.195 101.468 135.057 101.468C134.886 101.468 134.68 101.478 134.435 101.494C134.193 101.511 133.979 101.521 133.799 101.525C133.766 101.492 133.747 101.445 133.747 101.392C133.747 101.335 133.763 101.292 133.799 101.259C134.032 101.235 134.2 101.209 134.309 101.183C134.416 101.157 134.516 101.102 134.606 101.021C134.694 100.938 134.753 100.826 134.777 100.681C134.801 100.534 134.813 100.329 134.813 100.063L134.825 95.0403C134.67 94.4957 134.345 94.2056 133.842 94.1723C133.809 94.139 133.79 94.0938 133.79 94.0391C133.79 93.9844 133.806 93.9393 133.842 93.906L135.347 93.9298L139.351 99.095C139.385 99.1354 139.42 99.183 139.456 99.2281C139.491 99.2781 139.525 99.3185 139.548 99.3518C139.572 99.3851 139.598 99.4208 139.624 99.4541C139.65 99.4874 139.676 99.5183 139.693 99.542C139.712 99.5658 139.731 99.592 139.752 99.6134C139.769 99.6372 139.786 99.6538 139.802 99.6681C139.814 99.6824 139.826 99.6942 139.84 99.7061C139.852 99.7156 139.864 99.7252 139.876 99.7299C139.888 99.7347 139.897 99.7394 139.909 99.7394C140.004 99.7394 140.054 99.6205 140.054 99.3851L140.04 95.3305Z" fill="#1C1F1C"/>
<path d="M147.106 93.7727C147.645 93.7727 148.163 93.8631 148.659 94.0462C149.155 94.2293 149.49 94.3197 149.663 94.3197C149.739 94.7216 149.824 95.3185 149.919 96.1104C149.858 96.1532 149.765 96.177 149.639 96.177C149.217 94.7953 148.322 94.1056 146.947 94.1104C146.19 94.1104 145.533 94.4505 144.972 95.1282C144.412 95.806 144.132 96.6431 144.132 97.6442C144.132 98.039 144.201 98.448 144.339 98.8642C144.479 99.2851 144.678 99.6751 144.934 100.037C145.193 100.398 145.53 100.695 145.946 100.931C146.363 101.166 146.819 101.283 147.32 101.283C147.621 101.283 147.937 101.216 148.26 101.09C148.58 100.964 148.844 100.8 149.048 100.603V98.7144C149.048 98.498 148.979 98.3577 148.846 98.2935C148.711 98.2292 148.464 98.1841 148.101 98.1484C148.072 98.1175 148.058 98.0652 148.058 97.9962C148.058 97.9249 148.07 97.8749 148.091 97.844C148.255 97.844 148.497 97.8535 148.82 97.8702C149.141 97.8892 149.385 97.8987 149.549 97.8987C149.725 97.8987 149.907 97.8892 150.097 97.8702C150.285 97.8535 150.422 97.844 150.508 97.844C150.544 97.8725 150.565 97.9249 150.565 97.9962C150.565 98.0652 150.546 98.1151 150.508 98.1484C150.325 98.1627 150.195 98.2126 150.109 98.2935C150.026 98.3767 149.986 98.5146 149.986 98.7144V100.177C149.986 100.293 150.047 100.403 150.166 100.503C149.316 101.226 148.279 101.589 147.054 101.589C145.924 101.589 145.001 101.23 144.279 100.515C143.558 99.7988 143.197 98.9213 143.197 97.8844C143.197 97.0568 143.387 96.3268 143.766 95.6918C144.146 95.0545 144.631 94.5765 145.219 94.2555C145.806 93.932 146.435 93.7727 147.106 93.7727Z" fill="#1C1F1C"/>
</svg>
