<svg width="38" height="38" viewBox="0 0 38 38" fill="none" xmlns="http://www.w3.org/2000/svg">
<circle cx="19" cy="19" r="18.5" stroke="#1C1F1C"/>
<g clip-path="url(#clip0_975_2510)">
<path d="M23.6627 27.9189C23.5509 28.362 23.4488 28.778 23.3389 29.1911C23.3273 29.2361 23.2767 29.2885 23.231 29.3045C22.0693 29.7082 20.9562 30.2629 19.7157 30.4212C18.587 30.5655 17.4612 30.5533 16.4152 30.0427C15.2768 29.4872 14.6721 28.5822 14.6624 27.3418C14.6536 26.2785 14.9142 25.2573 15.2078 24.2399C15.6715 22.6342 16.1255 21.0256 16.563 19.4133C16.7127 18.8606 16.7613 18.2919 16.6505 17.7204C16.5591 17.2483 16.2801 16.9569 15.7891 16.8529C15.0979 16.7068 14.4223 16.7686 13.7544 16.9728C13.5172 17.045 13.2819 17.1208 13 17.2089C13.1176 16.7508 13.2226 16.3311 13.3373 15.9133C13.35 15.8655 13.4161 15.8158 13.4686 15.7962C14.5778 15.3877 15.6754 14.9352 16.8517 14.7319C18.0202 14.5305 19.1761 14.5558 20.2679 15.0757C21.3878 15.6088 21.9886 16.7658 21.938 17.9668C21.87 19.6157 21.275 21.1371 20.8541 22.7025C20.5799 23.72 20.2893 24.7336 20.0375 25.7567C19.9053 26.2944 19.8353 26.8471 19.9597 27.4036C20.053 27.8205 20.2941 28.1025 20.7297 28.2205C21.4471 28.4154 22.1558 28.3536 22.8597 28.1615C23.1163 28.0913 23.3681 28.0088 23.6617 27.9198L23.6627 27.9189Z" fill="black"/>
<path d="M20.9066 12.1425C19.6039 12.0882 18.4237 11.3612 17.9823 10.297C17.4311 8.96947 18.062 7.48926 19.4658 6.81848C20.7802 6.18986 22.4037 6.51401 23.3496 7.59512C24.6125 9.03879 23.9621 11.2301 22.0586 11.8943C21.6921 12.0226 21.2916 12.0629 20.9076 12.1435L20.9066 12.1425Z" fill="black"/>
</g>
<defs>
<clipPath id="clip0_975_2510">
<rect width="11" height="24" fill="white" transform="translate(13 6.5)"/>
</clipPath>
</defs>
</svg>
