<svg width="38" height="38" viewBox="0 0 38 38" fill="none" xmlns="http://www.w3.org/2000/svg">
<circle cx="19" cy="19" r="18.5" stroke="#1C1F1C"/>
<g clip-path="url(#clip0_975_2863)">
<path d="M28.5588 19.2128C29.2136 18.5224 29.8081 17.8937 30.3567 17.3157C30.9589 17.9337 31.5037 18.4921 32.0008 19.0026C30.4762 20.5623 28.8618 22.213 27.2952 23.8158C25.7592 22.2473 24.1506 20.6063 22.5601 18.983C23.0714 18.4667 23.6115 17.921 24.1697 17.3578C24.7346 17.9494 25.3406 18.5831 25.9838 19.2568C26.8556 16.7691 23.9346 12.6697 20.7727 11.7603C16.6301 10.5682 12.3806 13.2212 11.5423 17.5602C10.6754 22.0478 13.9405 26.3994 18.7205 26.5598V28.9175C14.8667 29.648 9.89159 25.4069 9.13744 20.7697C8.22845 15.1829 11.9189 9.91497 17.239 9.11309C23.5532 8.1616 28.7099 13.3327 28.5588 19.2128Z" fill="#1C1F1C"/>
</g>
<defs>
<clipPath id="clip0_975_2863">
<rect width="23" height="20" fill="white" transform="translate(9 9)"/>
</clipPath>
</defs>
</svg>
