<svg width="38" height="38" viewBox="0 0 38 38" fill="none" xmlns="http://www.w3.org/2000/svg">
<circle cx="19" cy="19" r="18.5" stroke="#386EFA"/>
<g clip-path="url(#clip0_975_2506)">
<path d="M15.043 17.7335H16.1083C19.932 17.7335 23.7541 17.7335 27.5777 17.7335C27.8498 17.7335 28.1268 17.7204 28.3956 17.7549C29.3593 17.88 30.01 18.6057 29.9985 19.5174C29.9887 20.3995 29.3626 21.0972 28.4349 21.2338C28.1661 21.2733 27.8908 21.2618 27.6171 21.2618C23.7934 21.2618 19.9713 21.2618 16.1476 21.2618C15.851 21.2618 15.5527 21.2618 15.0725 21.2618C15.3495 21.5695 15.5101 21.767 15.6887 21.9447C17.349 23.6052 19.0273 25.2475 20.6712 26.9244C21.6578 27.9299 21.3726 29.3863 20.1303 29.8668C19.4174 30.1416 18.7782 29.9787 18.2488 29.4521C15.3495 26.5657 12.4469 23.6776 9.56721 20.7664C8.80018 19.9913 8.81657 18.9859 9.59015 18.2042C12.4534 15.3144 15.3314 12.4395 18.2193 9.57609C18.9978 8.80429 20.0762 8.82239 20.7744 9.54976C21.4595 10.264 21.4562 11.2711 20.7007 12.0429C18.8863 13.8942 17.0474 15.7209 15.043 17.7335Z" fill="#386EFA"/>
</g>
<defs>
<clipPath id="clip0_975_2506">
<rect width="21" height="21" fill="white" transform="translate(9 9)"/>
</clipPath>
</defs>
</svg>
